<svg width="14" height="21" viewBox="0 0 14 21" fill="none" xmlns="http://www.w3.org/2000/svg">
<path d="M13.418 2.87665C13.4185 1.92879 12.223 1.51013 11.6344 2.2531L9.24735 5.2663L4.19072 5.27563L1.78317 2.24471C1.19414 1.50316 0.000140078 1.91967 0.000140078 2.86669V10.5616C-0.000597165 10.5743 0.00157573 10.612 0.00665875 10.6747C0.0148103 10.7497 0.0401438 10.8211 0.0802267 10.882L5.87427 19.6456C6.26972 20.2437 7.1476 20.2435 7.54282 19.6453L13.3318 10.882C13.3718 10.8211 13.3972 10.7497 13.4053 10.6747C13.4111 10.6305 13.4153 8.03118 13.418 2.87665Z" fill="#231F20"/>
<path d="M7.49598 19.0141L7.21661 18.6585L9.33331 5.94741L13.0033 10.6714L7.49598 19.0141Z" fill="white"/>
<path d="M5.92311 19.0142L0.413897 10.6746L4.08391 5.95054L6.20062 18.6627L5.92311 19.0142Z" fill="white"/>
<path d="M10.8214 10.8736L8.96267 13.2532L8.66468 11.7933L10.8214 10.8736Z" fill="#231F20"/>
</svg>
