<svg width="274" height="273" viewBox="0 0 274 273" fill="none" xmlns="http://www.w3.org/2000/svg">
<path d="M162.896 221.306C162.496 219.641 164.049 218.167 165.691 218.654V218.654C167.334 219.14 167.833 221.222 166.591 222.401V222.401C165.348 223.58 163.295 222.972 162.896 221.306V221.306Z" fill="#EC9AC1"/>
<path d="M74.933 161.525L93.0359 186.432L118.591 169.2L106.008 197.283L133.754 210.732L103.067 213.909L105.258 244.589L87.155 219.683L61.5994 236.914L74.1833 208.831L46.437 195.383L77.1238 192.206L74.933 161.525Z" fill="#303030"/>
<path d="M155.764 46.7229C157.367 43.1894 162.674 44.4924 162.448 48.364L159.88 92.3076C159.672 95.8661 163.49 98.2362 166.593 96.4749L204.959 74.6916C208.336 72.7747 211.855 76.9534 209.39 79.9527L181.436 113.96C179.168 116.72 180.862 120.89 184.411 121.283L228.241 126.138C232.101 126.565 232.491 132.02 228.732 133.001L186.099 144.124C182.639 145.027 181.557 149.405 184.201 151.807L216.776 181.397C219.648 184.006 216.761 188.656 213.144 187.248L172.067 171.253C168.74 169.958 165.297 172.867 166.02 176.362L174.935 219.422C175.721 223.22 170.657 225.29 168.56 222.029L144.73 184.974C142.802 181.978 138.317 182.309 136.843 185.557L118.647 225.663C117.044 229.196 111.737 227.893 111.963 224.022L114.532 180.078C114.74 176.519 110.921 174.149 107.818 175.911L69.4523 197.693C66.0754 199.61 62.5566 195.432 65.022 192.433L92.9755 158.426C95.244 155.666 93.5494 151.495 89.9997 151.101L46.1707 146.248C42.3111 145.821 41.9207 140.366 45.6793 139.385L88.313 128.262C91.7729 127.359 92.8545 122.981 90.211 120.579L57.6355 90.9884C54.7636 88.3793 57.6504 83.7294 61.2677 85.1379L102.344 101.132C105.671 102.427 109.114 99.5188 108.391 96.0242L99.4772 52.9639C98.691 49.1663 103.754 47.0951 105.851 50.3559L129.681 87.4112C131.608 90.4079 136.095 90.0769 137.568 86.8289L155.764 46.7229Z" stroke="black"/>
<path d="M215.8 157.344L215.987 157.847L216.475 157.624L239.265 147.234L228.767 169.77L228.537 170.264L229.05 170.45L252.579 179.04L229.05 187.63L228.537 187.816L228.767 188.311L239.266 210.845L216.475 200.456L215.987 200.233L215.8 200.736L207.109 224.026L198.419 200.736L198.231 200.233L197.743 200.456L174.951 210.845L185.451 188.311L185.681 187.816L185.17 187.63L161.639 179.04L185.17 170.45L185.681 170.264L185.451 169.77L174.952 147.234L197.743 157.624L198.231 157.847L198.419 157.344L207.109 134.053L215.8 157.344Z" fill="white" stroke="#303030"/>
<circle cx="81.6283" cy="142.824" r="4.08068" fill="#233038"/>
<circle cx="196.397" cy="146.394" r="3.57059" fill="#FFC27A"/>
</svg>
