<svg width="212" height="211" viewBox="0 0 212 211" fill="none" xmlns="http://www.w3.org/2000/svg">
<path d="M126.242 56.5245L126.428 57.0303L126.92 56.8047L179.578 32.6104L155.311 85.1075L155.085 85.5997L155.593 85.7872L209.985 105.8L155.593 125.814L155.085 126.001L155.311 126.492L179.578 178.989L126.92 154.795L126.428 154.57L126.242 155.076L106.165 209.308L86.0896 155.076L85.9021 154.57L85.4119 154.795L32.7507 178.99L57.0193 126.492L57.2468 126.001L56.738 125.814L2.34448 105.8L56.738 85.7872L57.2468 85.5997L57.0193 85.1075L32.7507 32.6094L85.4119 56.8047L85.9021 57.0303L86.0896 56.5245L106.165 2.29205L126.242 56.5245Z" fill="white" stroke="#303030"/>
</svg>
