<svg width="12" height="12" viewBox="0 0 12 12" fill="none" xmlns="http://www.w3.org/2000/svg">
<path d="M7.66875 7.96873L6.46875 11.225C6.43323 11.3207 6.36928 11.4032 6.28549 11.4615C6.20169 11.5198 6.10207 11.551 6 11.551C5.89793 11.551 5.79831 11.5198 5.71452 11.4615C5.63072 11.4032 5.56677 11.3207 5.53125 11.225L4.33125 7.96873C4.30593 7.9 4.26599 7.83758 4.21419 7.78579C4.1624 7.734 4.09998 7.69406 4.03125 7.66873L0.775001 6.46873C0.679313 6.43321 0.596786 6.36926 0.538508 6.28547C0.480231 6.20167 0.448994 6.10205 0.448994 5.99998C0.448994 5.89791 0.480231 5.79829 0.538508 5.7145C0.596786 5.6307 0.679313 5.56675 0.775001 5.53123L4.03125 4.33123C4.09998 4.30591 4.1624 4.26597 4.21419 4.21417C4.26599 4.16238 4.30593 4.09996 4.33125 4.03123L5.53125 0.774982C5.56677 0.679293 5.63072 0.596767 5.71452 0.538489C5.79831 0.480212 5.89793 0.448975 6 0.448975C6.10207 0.448975 6.20169 0.480212 6.28549 0.538489C6.36928 0.596767 6.43323 0.679293 6.46875 0.774982L7.66875 4.03123C7.69408 4.09996 7.73402 4.16238 7.78581 4.21417C7.8376 4.26597 7.90002 4.30591 7.96875 4.33123L11.225 5.53123C11.3207 5.56675 11.4032 5.6307 11.4615 5.7145C11.5198 5.79829 11.551 5.89791 11.551 5.99998C11.551 6.10205 11.5198 6.20167 11.4615 6.28547C11.4032 6.36926 11.3207 6.43321 11.225 6.46873L7.96875 7.66873C7.90002 7.69406 7.8376 7.734 7.78581 7.78579C7.73402 7.83758 7.69408 7.9 7.66875 7.96873V7.96873Z" fill="#1A906B"/>
</svg>
