<svg width="9" height="10" viewBox="0 0 9 10" fill="none" xmlns="http://www.w3.org/2000/svg">
<path fill-rule="evenodd" clip-rule="evenodd" d="M4.07704 0C1.82447 0 0 2.20446 0 4.92617C0 7.106 1.16705 8.94716 2.78767 9.59988C2.99153 9.64298 3.06797 9.4952 3.06797 9.36588C3.06797 9.24889 3.06287 8.86095 3.06287 8.44838C2.03852 8.67622 1.77351 8.14666 1.69197 7.86956C1.6461 7.72793 1.44735 7.29073 1.27407 7.17374C1.13138 7.08137 0.927526 6.85354 1.26898 6.84738C1.59004 6.84122 1.81938 7.20453 1.89582 7.35231C2.26276 8.0974 2.84883 7.88803 3.08326 7.75872C3.11893 7.43852 3.22596 7.223 3.34317 7.09985C2.43603 6.97669 1.48812 6.55181 1.48812 4.66755C1.48812 4.13183 1.6461 3.68847 1.90601 3.34364C1.86524 3.22049 1.72255 2.71555 1.94679 2.0382C1.94679 2.0382 2.28824 1.90889 3.06797 2.54314C3.39413 2.4323 3.74068 2.37688 4.08723 2.37688C4.43378 2.37688 4.78033 2.4323 5.10649 2.54314C5.88622 1.90273 6.22767 2.0382 6.22767 2.0382C6.45191 2.71555 6.30921 3.22049 6.26844 3.34364C6.52836 3.68847 6.68634 4.12567 6.68634 4.66755C6.68634 6.55797 5.73333 6.97669 4.82619 7.09985C4.97398 7.25379 5.10139 7.54936 5.10139 8.01119C5.10139 8.67006 5.0963 9.19963 5.0963 9.36588C5.0963 9.4952 5.17274 9.64914 5.37659 9.59988C6.18594 9.26971 6.88923 8.6412 7.38748 7.8028C7.88572 6.9644 8.15383 5.95832 8.15407 4.92617C8.15407 2.20446 6.3296 0 4.07704 0Z" fill="black"/>
</svg>
