<svg width="22" height="22" viewBox="0 0 22 22" fill="none" xmlns="http://www.w3.org/2000/svg">
<path d="M13.8781 14.3281L11.7031 20.3094C11.6498 20.4529 11.5539 20.5767 11.4282 20.6641C11.3025 20.7515 11.1531 20.7984 11 20.7984C10.8469 20.7984 10.6975 20.7515 10.5718 20.6641C10.4461 20.5767 10.3502 20.4529 10.2969 20.3094L8.12187 14.3281C8.08389 14.225 8.02398 14.1314 7.94629 14.0537C7.8686 13.976 7.77497 13.9161 7.67187 13.8781L1.69062 11.7031C1.54709 11.6498 1.4233 11.5539 1.33589 11.4282C1.24847 11.3025 1.20161 11.1531 1.20161 11C1.20161 10.8469 1.24847 10.6975 1.33589 10.5718C1.4233 10.4461 1.54709 10.3502 1.69062 10.2969L7.67187 8.12187C7.77497 8.08389 7.8686 8.02398 7.94629 7.94629C8.02398 7.8686 8.08389 7.77497 8.12187 7.67187L10.2969 1.69062C10.3502 1.54709 10.4461 1.4233 10.5718 1.33589C10.6975 1.24847 10.8469 1.20161 11 1.20161C11.1531 1.20161 11.3025 1.24847 11.4282 1.33589C11.5539 1.4233 11.6498 1.54709 11.7031 1.69062L13.8781 7.67187C13.9161 7.77497 13.976 7.8686 14.0537 7.94629C14.1314 8.02398 14.225 8.08389 14.3281 8.12187L20.3094 10.2969C20.4529 10.3502 20.5767 10.4461 20.6641 10.5718C20.7515 10.6975 20.7984 10.8469 20.7984 11C20.7984 11.1531 20.7515 11.3025 20.6641 11.4282C20.5767 11.5539 20.4529 11.6498 20.3094 11.7031L14.3281 13.8781C14.225 13.9161 14.1314 13.976 14.0537 14.0537C13.976 14.1314 13.9161 14.225 13.8781 14.3281V14.3281Z" stroke="black" stroke-width="1.5" stroke-linecap="round" stroke-linejoin="round"/>
</svg>
