<svg width="35" height="6" viewBox="0 0 35 6" fill="none" xmlns="http://www.w3.org/2000/svg">
<path d="M34.1011 4.09149C27.8161 1.14237 21.7927 0.579544 15.9388 0.521495C10.424 0.46597 4.35122 1.30013 0.214647 4.39437C0.100063 4.47892 0.275036 4.71993 0.396592 4.69343C2.98481 4.13314 5.52291 3.57285 8.11 3.1501C10.2529 5.91372 14.4481 5.12249 16.5669 5.13132C19.5288 5.14268 23.4234 5.41275 25.6294 3.60441C25.7634 3.49336 25.7943 3.25104 25.7482 3.01254C28.5258 3.33307 31.3302 3.78739 34.1249 4.3969C34.2902 4.43223 34.2662 4.16973 34.1015 4.09276L34.1011 4.09149Z" fill="white"/>
</svg>
