<svg width="15" height="15" viewBox="0 0 15 15" fill="none" xmlns="http://www.w3.org/2000/svg">
<path d="M9.61979 9.94079L8.06733 14.2101C8.02931 14.3125 7.96084 14.4009 7.87112 14.4633C7.7814 14.5257 7.67474 14.5591 7.56546 14.5591C7.45618 14.5591 7.34952 14.5257 7.2598 14.4633C7.17009 14.4009 7.10162 14.3125 7.06359 14.2101L5.51113 9.94079C5.48401 9.8672 5.44125 9.80037 5.3858 9.74492C5.33035 9.68946 5.26352 9.6467 5.18993 9.61959L0.920664 8.06713C0.818214 8.0291 0.729856 7.96063 0.66746 7.87091C0.605064 7.7812 0.57162 7.67454 0.57162 7.56526C0.57162 7.45598 0.605064 7.34931 0.66746 7.2596C0.729856 7.16988 0.818214 7.10141 0.920664 7.06338L5.18993 5.51092C5.26352 5.48381 5.33035 5.44105 5.3858 5.38559C5.44125 5.33014 5.48401 5.26331 5.51113 5.18972L7.06359 0.920458C7.10162 0.818008 7.17009 0.72965 7.2598 0.667254C7.34952 0.604859 7.45618 0.571414 7.56546 0.571414C7.67474 0.571414 7.7814 0.604859 7.87112 0.667254C7.96084 0.72965 8.02931 0.818008 8.06733 0.920458L9.61979 5.18972C9.64691 5.26331 9.68967 5.33014 9.74512 5.38559C9.80058 5.44105 9.86741 5.48381 9.94099 5.51092L14.2103 7.06338C14.3127 7.10141 14.4011 7.16988 14.4635 7.2596C14.5259 7.34931 14.5593 7.45598 14.5593 7.56526C14.5593 7.67454 14.5259 7.7812 14.4635 7.87091C14.4011 7.96063 14.3127 8.0291 14.2103 8.06713L9.94099 9.61959C9.86741 9.6467 9.80058 9.68946 9.74512 9.74492C9.68967 9.80037 9.64691 9.8672 9.61979 9.94079V9.94079Z" fill="#FFC27A"/>
</svg>
