<svg width="35" height="35" viewBox="0 0 35 35" fill="none" xmlns="http://www.w3.org/2000/svg">
<path d="M22.8498 23.6308L19.0708 34.0229C18.9782 34.2723 18.8116 34.4874 18.5932 34.6392C18.3748 34.7911 18.1152 34.8725 17.8492 34.8725C17.5832 34.8725 17.3235 34.7911 17.1051 34.6392C16.8868 34.4874 16.7201 34.2723 16.6275 34.0229L12.8486 23.6308C12.7826 23.4517 12.6785 23.289 12.5435 23.154C12.4085 23.0191 12.2459 22.915 12.0667 22.849L1.67465 19.07C1.42527 18.9775 1.21019 18.8108 1.05831 18.5924C0.906429 18.374 0.82502 18.1144 0.82502 17.8484C0.82502 17.5824 0.906429 17.3228 1.05831 17.1044C1.21019 16.886 1.42527 16.7193 1.67465 16.6267L12.0667 12.8478C12.2459 12.7818 12.4085 12.6777 12.5435 12.5427C12.6785 12.4078 12.7826 12.2451 12.8486 12.066L16.6275 1.67387C16.7201 1.42449 16.8868 1.20941 17.1051 1.05753C17.3235 0.905648 17.5832 0.824239 17.8492 0.824239C18.1152 0.824239 18.3748 0.905648 18.5932 1.05753C18.8116 1.20941 18.9782 1.42449 19.0708 1.67387L22.8498 12.066C22.9158 12.2451 23.0198 12.4078 23.1548 12.5427C23.2898 12.6777 23.4525 12.7818 23.6316 12.8478L34.0237 16.6267C34.2731 16.7193 34.4881 16.886 34.64 17.1044C34.7919 17.3228 34.8733 17.5824 34.8733 17.8484C34.8733 18.1144 34.7919 18.374 34.64 18.5924C34.4881 18.8108 34.2731 18.9775 34.0237 19.07L23.6316 22.849C23.4525 22.915 23.2898 23.0191 23.1548 23.154C23.0198 23.289 22.9158 23.4517 22.8498 23.6308V23.6308Z" fill="#FFC27A"/>
</svg>
