<svg width="23" height="33" viewBox="0 0 23 33" fill="none" xmlns="http://www.w3.org/2000/svg">
<path d="M22.7928 2.70867C22.7932 1.78001 21.6378 1.34915 21.0335 2.05431L15.7075 8.26955L7.11833 8.28421L1.75871 2.04655C1.15405 1.34283 0.000237936 1.77045 0.000237936 2.69826V16.5847C-0.00101434 16.6046 0.00267652 16.6637 0.0113105 16.7622C0.0251567 16.8799 0.0681881 16.9921 0.136273 17.0878L10.5818 31.6932C10.9807 32.2511 11.8101 32.2509 12.2088 31.6929L22.6453 17.0878C22.7133 16.9921 22.7564 16.8799 22.7702 16.7622C22.7807 16.6879 22.7882 12.0034 22.7928 2.70867Z" fill="#231F20"/>
<path d="M12.7322 29.8576L12.2576 29.2992L15.853 9.33925L22.0869 16.7573L12.7322 29.8576Z" fill="white"/>
<path d="M10.0605 29.8577L0.702572 16.7622L6.93644 9.34418L10.5319 29.3057L10.0605 29.8577Z" fill="white"/>
<path d="M18.3807 17.0747L15.2235 20.8114L14.7173 18.5189L18.3807 17.0747Z" fill="#231F20"/>
</svg>
