<svg width="68" height="71" viewBox="0 0 68 71" fill="none" xmlns="http://www.w3.org/2000/svg">
<path d="M60.1975 58.0272C60.1852 54.7266 58.1235 51.2855 56.509 48.7467C54.6876 45.8789 52.5109 42.9266 49.9988 40.9607C51.5675 35.6996 52.504 29.9178 51.338 24.1692C49.9829 17.4893 46.3414 11.9192 41.0283 9.45646C35.9984 7.12614 30.2564 8.08277 26.273 11.9731C24.0548 14.1393 22.7434 17.1402 21.8796 20.4631C20.9592 24.0022 19.813 27.8299 19.9648 31.6916C17.6642 32.3752 15.418 33.4293 13.2663 34.7049C11.0607 35.7304 9.01087 37.1719 7.19963 38.9878C7.12502 39.0622 7.04794 39.1405 6.96855 39.2218C5.25633 40.7934 2.775 43.5679 3.83973 45.5115C4.25936 46.9155 5.66964 48.1906 6.46463 48.8909C9.73925 51.7732 14.0704 54.0357 18.1925 55.3494C20.2528 56.2054 22.3343 56.9671 24.3892 57.6741C29.9416 59.5844 35.6221 60.6511 41.282 61.3097C45.4147 61.9138 49.5913 62.1129 53.5931 61.8942C56.6217 62.2422 60.2118 61.7944 60.1976 58.0261L60.1975 58.0272ZM49.9874 41.3397C49.9595 41.3164 49.9315 41.2943 49.9046 41.2713C49.9062 41.2659 49.9079 41.2605 49.9096 41.255C49.9358 41.2837 49.9611 41.3121 49.9872 41.3408L49.9874 41.3397ZM41.8859 36.0833C42.0634 35.662 42.1741 35.1461 42.2417 34.8763C42.4019 34.2424 42.6731 33.6388 42.8787 33.0131C42.9722 32.7294 43.018 32.2954 43.5095 31.942C43.7487 31.7706 44.0715 31.3987 44.1424 31.0532C44.1998 30.7652 44.2374 30.1365 44.7573 29.2391C44.8651 29.0527 44.9374 28.9082 45.4464 28.6199C45.8142 28.4119 45.7865 27.6785 45.3165 27.4376C45.0132 27.2817 44.6628 27.3944 44.6034 27.7196C44.4987 28.2844 44.3005 28.4675 44.1903 28.6061C44.0246 28.8137 43.8141 29.1113 43.5746 29.2921C43.591 28.9854 43.6074 28.6055 43.6062 28.2559C43.6055 28.0859 43.5996 27.9037 43.7768 27.4775C43.8831 27.2223 43.8732 26.895 43.7553 26.7259C43.6016 26.5064 43.3936 26.3835 43.1727 26.4894C42.9152 26.6156 42.7896 26.9078 42.8079 27.2008C42.8192 27.3786 42.988 27.6956 42.9084 28.1955C42.8672 28.4563 42.5936 28.9825 42.3751 29.3698C42.5973 29.3563 42.8242 29.4102 43.0128 29.5417C43.2394 29.6994 43.4049 29.9175 43.4399 30.2377C43.4617 30.4314 43.3654 30.6116 43.2123 30.6141C43.1938 30.6148 43.1847 30.5957 43.1843 30.5767C43.1922 30.2828 43.1774 30.1536 42.9641 29.9242C42.6771 29.6161 42.262 29.6621 42.1869 29.682C41.9617 29.7395 41.804 29.894 41.8157 30.3397C41.8246 30.6525 41.9008 30.9903 41.9645 31.2762C41.9906 31.3933 41.869 31.984 41.7798 32.1686C41.4215 32.9113 41.0341 33.6187 40.7285 34.4012C40.6148 34.6909 40.5099 35.068 40.472 35.4348C40.3404 35.3773 40.2086 35.3209 40.0768 35.2646C40.1352 34.7716 40.2845 34.3375 40.356 34.1549C40.5636 33.6229 40.8069 33.1282 41.0475 32.6469C40.955 32.0084 40.8211 31.4194 40.6485 30.9775C40.3957 30.3299 40.0894 29.8311 39.7509 29.4223C38.4073 30.7873 36.7145 33.1713 35.4193 33.7909C34.5506 32.8267 35.1885 36.443 35.4193 33.7909C33.8759 31.2458 33.5687 29.5695 32.5837 27.5636C31.1605 28.1192 29.9936 29.5297 29.3101 32.3305C29.117 32.3063 28.9233 32.2795 28.7317 32.2592C26.1194 31.98 23.5304 32.0437 20.9897 32.4301C21.617 25.908 22.5984 19.1363 26.346 14.4263C29.3283 10.6783 33.89 9.47814 38.1767 10.3148C42.2182 11.1042 45.961 14.0288 48.2854 18.3207C51.7639 24.7433 50.4526 33.711 48.7001 40.2894C46.5588 38.6271 44.2556 37.2243 41.8865 36.0788L41.8859 36.0833ZM20.0017 32.312C19.9969 32.3118 19.991 32.3125 19.9862 32.3123C19.9913 32.3102 19.9966 32.307 20.0017 32.3049C20.0014 32.3072 20.0011 32.3094 20.0017 32.312ZM6.21546 42.5631C5.86599 42.7492 5.56155 42.9458 5.29483 43.1495C6.14799 41.7205 7.78996 40.1171 8.36503 39.541C10.3445 37.557 12.762 36.2815 15.1941 35.2908C19.0304 33.7274 23.2059 33.1889 27.3242 33.4197C34.2257 33.8073 42.2631 36.5717 48.6127 41.8064C48.6691 41.8767 48.7356 41.9298 48.8059 41.9687C51.6439 44.3434 54.1357 47.2155 56.0235 50.5976C56.6739 51.7628 58.6285 55.3562 58.8211 57.7172C58.2006 56.7646 57.2497 55.8466 56.6062 55.2731C49.4446 48.8968 40.5814 44.5752 32.3193 42.01C24.0519 39.4421 13.866 38.4911 6.21531 42.5643L6.21546 42.5631Z" fill="#231F20"/>
<path d="M31.7084 9.75329C26.412 13.3098 23.5647 19.2355 22.6035 26.5284C22.592 26.6207 22.7125 26.6803 22.7393 26.5913C23.7787 23.0934 24.9572 19.6233 26.7075 16.6054C28.1603 14.0985 30.104 12.122 31.7962 9.87424C31.844 9.80987 31.7668 9.7143 31.7083 9.75449L31.7084 9.75329Z" fill="#231F20"/>
<path d="M32.2369 8.14512C32.2694 8.08302 32.2291 8.01122 32.17 8.0243C31.8761 8.09027 31.6659 8.42416 31.4088 8.58113C31.3854 8.59595 31.402 8.64805 31.4279 8.64345C31.7133 8.59765 32.0732 8.45168 32.2369 8.14512V8.14512Z" fill="#231F20"/>
<path d="M55.0122 48.192C56.1977 49.9019 57.1641 51.7997 58.2858 53.5661C58.3324 53.6408 58.4283 53.5909 58.4007 53.4979C57.2385 49.5538 54.2328 45.6251 51.4228 43.2766C51.3904 43.2498 51.3497 43.3081 51.3752 43.3437C52.5389 45.0119 53.8496 46.5157 55.0115 48.1906L55.0122 48.192Z" fill="#231F20"/>
<path d="M7.45632 39.4201C8.86297 37.9273 10.1618 36.4116 11.7473 35.1791C13.5707 33.7607 15.5832 32.5983 17.627 31.6851C17.7081 31.6494 17.6598 31.5086 17.5778 31.5286C15.4925 32.0223 13.6284 33.0379 11.847 34.3598C10.2144 35.5708 8.27074 37.2056 7.41763 39.3784C7.40742 39.4041 7.43615 39.4394 7.45537 39.4198L7.45632 39.4201Z" fill="#231F20"/>
<path d="M49.1935 67.3893C41.8659 67.156 34.837 65.2797 27.6824 63.3126C27.6442 63.3032 27.6298 63.3839 27.6671 63.3985C34.4768 66.327 42.035 68.2666 49.1952 67.5671C49.2735 67.5593 49.2718 67.3925 49.1935 67.3893V67.3893Z" fill="#231F20"/>
<path d="M50.4819 67.1383C50.312 67.1516 50.1484 67.1798 49.9771 67.1761C49.7806 67.1715 49.5943 67.1417 49.4049 67.2058C49.3428 67.2267 49.3565 67.3412 49.4153 67.3632C49.7491 67.4842 50.2434 67.5795 50.5401 67.3486C50.6119 67.2928 50.5709 67.1329 50.4817 67.1394L50.4819 67.1383Z" fill="#231F20"/>
<path d="M36.0024 4.13206C42.317 3.90071 48.6907 9.54113 50.1032 17.5462C50.1172 17.6255 50.2242 17.6573 50.2267 17.5618C50.3398 13.6367 48.0097 10.0758 45.6053 7.66534C42.9316 4.98352 39.2586 3.21482 35.9774 4.00139C35.9173 4.01639 35.9431 4.13438 36.0023 4.13319L36.0024 4.13206Z" fill="#231F20"/>
</svg>
