<svg width="9" height="10" viewBox="0 0 9 10" fill="none" xmlns="http://www.w3.org/2000/svg">
<path d="M8.07464 3.96131H7.74624V3.94087H4.07697V5.91131H6.38106C6.04492 7.05835 5.14167 7.88174 4.07697 7.88174C2.72606 7.88174 1.63079 6.55835 1.63079 4.92609C1.63079 3.29383 2.72606 1.97044 4.07697 1.97044C4.70054 1.97044 5.26785 2.25467 5.6998 2.71895L6.85297 1.32561C6.12483 0.505663 5.15084 0 4.07697 0C1.82546 0 0 2.20566 0 4.92609C0 7.64652 1.82546 9.85218 4.07697 9.85218C6.32847 9.85218 8.15393 7.64652 8.15393 4.92609C8.15393 4.59579 8.1258 4.27338 8.07464 3.96131Z" fill="#FFC107"/>
<path d="M0.469807 2.63324L1.80929 3.82018C2.17174 2.73595 3.04951 1.97043 4.0767 1.97043C4.70027 1.97043 5.26758 2.25467 5.69954 2.71895L6.85271 1.32561C6.12456 0.505663 5.15057 0 4.0767 0C2.51074 0 1.1527 1.06822 0.469807 2.63324Z" fill="#FF3D00"/>
<path d="M4.07703 9.85235C5.13011 9.85235 6.08697 9.3654 6.81043 8.57353L5.54861 7.28339C5.12553 7.67215 4.60856 7.88242 4.07703 7.88191C3.01661 7.88191 2.11621 7.06492 1.77701 5.92478L0.447511 7.16245C1.12225 8.75777 2.49252 9.85235 4.07703 9.85235Z" fill="#4CAF50"/>
<path d="M8.07464 3.96131H7.74624V3.94087H4.07697V5.91131H6.38106C6.22027 6.45722 5.93063 6.93425 5.54794 7.28347L5.54855 7.28297L6.81037 8.57312C6.72108 8.67115 8.15393 7.38913 8.15393 4.92609C8.15393 4.59579 8.1258 4.27338 8.07464 3.96131Z" fill="#1976D2"/>
</svg>
