<svg width="109" height="89" viewBox="0 0 109 89" fill="none" xmlns="http://www.w3.org/2000/svg">
<path d="M108.567 70.7608C107.734 65.6254 103.057 61.179 99.4338 57.9398C95.3449 54.2798 90.5751 50.6455 85.4244 48.6961C87.0467 39.8071 87.3665 30.387 83.7878 21.9499C79.6288 12.1459 71.4941 5.08314 61.0168 3.60041C51.0981 2.19851 40.6638 6.23148 34.2179 14.0549C30.6284 18.4112 28.9289 23.666 28.1402 29.224C27.2995 35.1439 26.1101 41.6132 27.3408 47.5607C23.2339 49.6442 19.3193 52.2808 15.6346 55.2205C11.7882 57.7946 8.33347 60.9475 5.4141 64.5781C5.29374 64.7269 5.16976 64.8831 5.04221 65.0448C2.24681 68.2509 -1.68219 73.6711 0.77367 76.2269C1.8983 78.2277 4.83202 79.5892 6.48123 80.3278C13.2739 83.3668 21.8775 84.9726 29.8595 85.1931C33.8981 85.6139 37.9529 85.8784 41.9448 86.0695C52.7311 86.5858 63.5481 85.7314 74.2267 84.2505C82.0541 83.3613 89.8637 81.8216 97.2456 79.7086C102.959 78.9094 109.519 76.6219 108.567 70.7589V70.7608ZM85.4963 49.2914C85.4388 49.2675 85.3813 49.2455 85.3256 49.2216C85.3274 49.2124 85.3292 49.2032 85.331 49.1941C85.3867 49.2271 85.4406 49.2602 85.4963 49.2933V49.2914ZM69.1515 44.6926C69.3778 43.9576 69.4569 43.1051 69.5161 42.6549C69.6581 41.5966 70.0138 40.5365 70.2419 39.4708C70.3461 38.9876 70.3246 38.2913 71.151 37.5233C71.5534 37.1503 72.0618 36.4282 72.1085 35.8586C72.1445 35.3846 72.06 34.3887 72.8056 32.7609C72.9601 32.4228 73.0589 32.1656 73.9338 31.4913C74.5662 31.0044 74.3344 29.8744 73.402 29.7072C72.8002 29.5988 72.1768 29.9295 72.1463 30.4623C72.0906 31.3884 71.7672 31.7613 71.5965 32.0259C71.3396 32.4228 71.0216 32.9795 70.621 33.3672C70.5761 32.8821 70.5132 32.2832 70.4252 31.7393C70.3821 31.4747 70.3264 31.1936 70.5509 30.4513C70.6857 30.0067 70.5869 29.5014 70.3264 29.2901C69.9868 29.0163 69.57 28.9171 69.1856 29.1799C68.7382 29.4904 68.5766 30.0012 68.6826 30.4495C68.7472 30.7214 69.1389 31.1403 69.1137 31.9543C69.1011 32.3787 68.7221 33.3194 68.4113 34.0194C68.8209 33.9 69.2556 33.8835 69.6383 34.0047C70.0982 34.1499 70.4593 34.4163 70.603 34.8995C70.6911 35.1917 70.5563 35.515 70.2725 35.5867C70.2384 35.5959 70.2168 35.5702 70.2114 35.5408C70.1539 35.0796 70.0946 34.8848 69.6419 34.6221C69.0329 34.2693 68.2729 34.5247 68.1382 34.589C67.734 34.7783 67.4789 35.0888 67.61 35.7778C67.7034 36.261 67.928 36.7534 68.1166 37.1705C68.1939 37.3413 68.113 38.3151 67.9927 38.6422C67.5094 39.9577 66.9633 41.231 66.5878 42.5851C66.4477 43.0867 66.3453 43.7206 66.365 44.3085C66.1063 44.2773 65.8476 44.2479 65.5889 44.2185C65.5763 43.4248 65.747 42.6825 65.835 42.3665C66.0902 41.446 66.4207 40.5677 66.7495 39.7115C66.4207 38.758 66.0273 37.8999 65.5979 37.2881C64.9691 36.3914 64.2775 35.7502 63.5481 35.2633C61.3868 37.9844 58.8271 42.4472 56.5727 43.9859C54.7217 42.8689 56.7953 48.2189 56.5727 43.9859C53.0796 40.7053 52.097 38.2306 49.7741 35.5426C47.2661 37.0382 45.4444 39.752 44.8623 44.417C44.4976 44.4647 44.1312 44.5088 43.7701 44.5621C38.8476 45.2842 34.0526 46.5299 29.4266 48.257C28.99 37.8209 29.1499 26.8391 34.9563 17.8435C39.5769 10.6852 47.7583 6.79555 55.929 6.20025C63.6325 5.63986 71.3055 8.53735 76.6789 14.1927C84.7202 22.6555 84.4866 37.2036 82.8464 48.2258C78.4593 46.585 73.835 45.4201 69.1515 44.6852V44.6926ZM27.5617 48.5105C27.5528 48.5124 27.542 48.5161 27.533 48.5179C27.542 48.5124 27.551 48.505 27.56 48.4995C27.56 48.5032 27.56 48.5069 27.5617 48.5105ZM4.46373 70.5826C3.8601 71.0272 3.3427 71.4681 2.89716 71.9036C4.13138 69.3001 6.78844 66.0755 7.71545 64.9235C10.9061 60.9567 15.0848 57.8994 19.3606 55.2793C26.1048 51.1453 33.731 48.4573 41.44 46.9929C54.3588 44.5401 69.9724 45.286 83.0566 50.6272C83.1788 50.7117 83.3153 50.765 83.4554 50.7944C89.3121 53.2362 94.6478 56.6059 98.9864 61.0376C100.481 62.5644 104.996 67.2955 105.934 70.8875C104.547 69.6786 102.554 68.6699 101.218 68.0617C86.3442 61.3022 68.8137 58.4965 52.8317 58.1603C36.839 57.8222 17.679 60.852 4.46373 70.5844V70.5826Z" fill="#231F20"/>
<path d="M43.4938 11.9713C35.1777 19.5026 31.563 29.4922 31.4714 40.6982C31.4714 40.8397 31.6906 40.8764 31.7175 40.7331C32.7523 35.1108 34.0315 29.4702 36.3867 24.254C38.3414 19.9215 41.2499 16.1641 43.6699 12.1128C43.7381 11.997 43.5854 11.8886 43.4938 11.9732V11.9713Z" fill="#231F20"/>
<path d="M45.8813 10.2277C45.9262 10.1175 45.8346 10.0238 45.7286 10.0697C45.2022 10.2994 44.895 10.9075 44.4584 11.2621C44.4189 11.2952 44.462 11.3687 44.5087 11.3503C45.0243 11.1556 45.6531 10.7734 45.8813 10.2277V10.2277Z" fill="#231F20"/>
<path d="M98.5894 54.6015C101.196 56.7383 103.444 59.2628 105.946 61.5154C106.05 61.6109 106.216 61.4915 106.142 61.3592C103.036 55.7425 96.5252 50.9562 90.7601 48.5382C90.6936 48.5107 90.6326 48.6191 90.6883 48.6632C93.2447 50.7449 96.0329 52.5069 98.5876 54.5996L98.5894 54.6015Z" fill="#231F20"/>
<path d="M2.69968 65.2284C4.92199 62.318 6.94129 59.4187 9.55345 56.8336C12.5573 53.8589 15.9689 51.1985 19.4973 48.9091C19.6374 48.8191 19.5152 48.6225 19.3697 48.6887C15.6652 50.3478 12.4908 52.7179 9.54086 55.5254C6.83708 58.0977 3.6644 61.4582 2.61882 65.1806C2.60625 65.2247 2.66734 65.267 2.69788 65.2284H2.69968Z" fill="#231F20"/>
<path d="M89.7902 83.5412C75.5132 86.7235 61.2469 87.5485 46.7058 88.311C46.6286 88.3165 46.6286 88.4322 46.7058 88.4341C60.911 89.1322 76.2246 88.1401 89.8549 83.7801C90.004 83.7323 89.943 83.5082 89.7902 83.5412V83.5412Z" fill="#231F20"/>
<path d="M92.7241 82.7385C92.4025 82.8414 92.0971 82.9645 91.7683 83.0416C91.3911 83.1298 91.0264 83.1739 90.6814 83.365C90.5682 83.4275 90.6257 83.5984 90.7443 83.6039C91.4162 83.6296 92.3881 83.5378 92.8929 83.0362C93.0151 82.9149 92.8929 82.687 92.7241 82.7403V82.7385Z" fill="#231F20"/>
<path d="M53.1823 1.79276C65.043 -1.50711 78.5278 4.35768 83.2563 16.2324C83.303 16.35 83.5132 16.35 83.4934 16.1993C82.6958 10.002 77.3798 5.51152 72.2202 2.85657C66.4821 -0.0978809 59.0929 -1.15802 53.1015 1.59983C52.9919 1.65128 53.071 1.824 53.1823 1.7946V1.79276Z" fill="#231F20"/>
</svg>
