<svg width="450" height="471" viewBox="0 0 450 471" fill="none" xmlns="http://www.w3.org/2000/svg">
<path d="M222.057 4.249C222.772 0.435165 228.236 0.435139 228.939 4.249L253.413 136.922C254.06 140.427 258.334 141.819 260.927 139.368L359.201 46.4902C362.023 43.823 366.438 47.0421 364.759 50.5429L306.366 172.288C304.821 175.509 307.461 179.156 311.002 178.691L445.114 161.091C448.965 160.585 450.644 165.79 447.227 167.638L328.311 231.987C325.166 233.689 325.159 238.199 328.3 239.901L447.034 304.251C450.446 306.1 448.752 311.304 444.903 310.799L310.841 293.198C307.301 292.733 304.65 296.38 306.186 299.601L364.235 421.346C365.904 424.847 361.48 428.065 358.666 425.398L260.654 332.521C258.068 330.07 253.79 331.462 253.133 334.967L228.285 467.64C227.57 471.454 222.107 471.454 221.403 467.64L196.93 334.967C196.284 331.462 192.009 330.07 189.416 332.521L91.1414 425.398C88.3192 428.065 83.9049 424.847 85.5836 421.346L143.977 299.601C145.522 296.38 142.882 292.733 139.341 293.198L5.22802 310.799C1.37792 311.304 -0.301293 306.1 3.11519 304.251L122.032 239.901C125.177 238.199 125.184 233.689 122.043 231.987L3.30811 167.638C-0.10338 165.79 1.59067 160.586 5.43943 161.091L139.502 178.691C143.042 179.156 145.693 175.509 144.157 172.288L86.1073 50.5429C84.4381 47.0422 88.8617 43.8234 91.6765 46.4902L189.689 139.368C192.275 141.819 196.553 140.427 197.21 136.922L222.057 4.249Z" stroke="black"/>
</svg>
