<svg width="480" height="493" viewBox="0 0 480 493" fill="none" xmlns="http://www.w3.org/2000/svg">
<ellipse cx="239.511" cy="246.015" rx="239.512" ry="246.015" fill="#E5FBCC"/>
<mask id="mask0_515_1466" style="mask-type:alpha" maskUnits="userSpaceOnUse" x="-1" y="0" width="481" height="493">
<ellipse cx="239.511" cy="246.015" rx="239.512" ry="246.015" fill="#D2FC9D"/>
</mask>
<g mask="url(#mask0_515_1466)">
<path d="M302.696 339.008C301.902 336.041 299.742 333.202 296.994 333.975C296.208 334.196 292.186 335.471 292.293 335.879L296.448 351.886C296.555 352.286 297.077 352.141 297.209 352.107C302.307 350.671 303.888 343.437 302.696 339.008V339.008Z" fill="#C1EE88"/>
<path d="M352.7 259.007C359.188 250.49 356.821 235.333 354.802 227.767C354.587 226.951 354.008 224.792 353.974 224.665C352.096 217.643 345.425 213.86 340.427 216.291C341.494 221.358 344.275 228.566 345.583 233.429C347.569 240.858 350.068 251.765 352.708 259.007H352.7Z" fill="#C1EE88"/>
<path d="M402.555 203.965C402.555 203.965 402.845 205.045 402.911 205.317C404.111 209.771 405.758 213.809 406.784 218.161L407.082 218.221C407.214 218.187 407.777 218.17 407.901 218.136C408.017 218.102 408.133 218.051 408.24 218.008C407.512 212.925 406.776 207.859 406.047 202.775C404.996 203.056 403.937 203.336 402.878 203.583L402.555 203.965V203.965Z" fill="#C1EE88"/>
<path d="M304.36 375.654C304.227 375.688 304.004 375.901 304.045 376.028L308.522 392.239C308.63 392.647 309.151 392.494 309.416 392.426C318.338 390.037 317.593 383.033 316.865 380.347C316.219 377.932 314.374 372.101 304.36 375.654V375.654Z" fill="#C1EE88"/>
<path d="M369.897 339.076C369.484 337.027 366.107 321.802 362.027 322.822C361.787 322.448 361.663 322.491 361.398 322.559C358.659 323.332 354.454 325.526 355.075 335.174C355.191 337.163 356.275 342.782 356.308 342.909C356.416 343.309 357.426 347.066 357.781 348.409C357.997 349.217 359.006 352.983 359.255 353.918C362.822 368.794 366.695 374.345 369.98 373.997C370.104 373.954 370.369 373.886 370.502 373.844C371.801 373.478 373.092 370.375 373.167 369.619C374.251 361.084 372.132 347.389 369.972 339.331C369.972 339.331 369.939 339.195 369.906 339.059L369.897 339.076Z" fill="#C1EE88"/>
<path d="M445.143 439.971C441.22 439.852 437.289 439.928 433.35 439.92C432.29 419.348 430.668 398.819 428.707 378.315C427.904 379.182 426.977 379.845 425.86 380.16C421.018 381.528 415.449 382.234 410.698 382.854C408.464 382.914 408.546 382.166 406.883 381.188C406.014 380.559 404.706 380.933 404.342 379.599L404.276 379.327C407.313 374.422 415.697 343.751 416.152 340.733L376.146 302.65L376.038 302.242C375.889 301.707 375.823 301.443 376.436 301.12C376.709 301.052 378.273 300.602 378.662 300.491C385.324 298.612 393.683 295.671 399.567 294.013C403.589 293.308 404.789 296.725 407.297 298.757L421.184 311.414C419.429 297.66 417.576 283.915 415.664 270.169L410.16 271.963C409.217 272.66 407.338 273.051 406.552 273.272C406.031 273.425 404.144 273.807 403.755 273.918C403.093 274.105 402.257 273.62 401.826 273.017C397.415 258.14 381.103 210.468 376.618 190.526C376.245 190.194 376.138 189.795 376.03 189.387C375.087 185.876 392.342 180.095 402.364 176.959C401.462 170.566 400.585 164.157 399.699 157.756C398.632 158.062 392.433 160.008 390.314 160.612C388.701 161.062 384.339 162.099 384.157 162.15L383.396 162.176C379.638 145.991 377.495 121.415 361.696 113.577C359.453 112.43 356.225 111.163 353.892 111.818C353.892 111.818 352.716 111.758 352.692 112.362C353.18 114.206 355.141 122.971 355.638 124.807C355.688 124.994 356.027 126.286 356.126 126.651C356.763 129.049 357.947 131.293 358.592 133.69C360.719 141.613 362.077 149.561 364.427 157.62C365.668 166.588 355.894 171.926 348.545 174C347.469 174.306 344.598 175.114 344.242 175.216C343.514 175.42 340.915 175.76 340.501 175.675C340.319 175.726 338.324 175.496 337.745 175.462C337.563 175.513 337.282 175.199 337.282 175.199C337.05 175.063 336.727 174.561 336.727 174.561L301.612 50.6465C301.074 48.6149 314.895 43.3189 316.112 42.7834C316.294 42.7324 318.801 42.0268 319.513 41.8228C320.415 41.5763 322.567 40.9642 322.749 40.9047C323.105 40.8027 326.713 40.5817 327.069 40.4797C332.117 39.8506 332.44 40.3522 333.806 44.7215C333.897 45.0871 333.996 45.4611 334.095 45.8266L334.145 46.0136C334.443 47.1187 334.335 48.1473 334.633 49.2439C336.015 54.4038 338.035 59.7848 339.591 64.8937C340.485 68.2175 344.573 83.5103 345.467 86.8341L346.766 90.2343C347.039 90.5574 347.536 90.2173 347.709 90.1663C351.293 89.1547 355.357 79.0899 356.234 75.8681C358.543 66.4833 359.453 54.7354 356.879 45.1466C355.994 41.8313 354.339 38.533 353.445 35.2177C353.395 35.0222 352.923 33.9681 353.461 33.8151L383.429 25.3484C384.074 25.1614 384.587 25.2804 384.993 25.5439C384.728 21.9736 384.414 18.4033 384.174 14.833C385.581 14.5525 387.012 14.323 388.419 14.0254C391.696 13.3369 391.084 8.806 387.815 8.8145C386.466 8.8145 385.117 8.89101 383.768 8.90801C383.603 6.26429 383.387 3.62906 383.238 0.97684C383.172 -0.289766 381.078 -0.349272 381.037 0.942837C380.954 3.61206 381.045 6.29829 381.004 8.96751C325.298 9.86009 269.294 19.0324 214.126 26.224C158.056 33.5346 101.324 42.3838 46.1647 55.5854C45.8998 54.0893 45.6846 52.5932 45.4198 51.1056C45.1053 49.3629 42.6804 49.6689 42.7715 51.4286C42.8542 53.0607 42.9784 54.6929 43.0611 56.325C40.1066 57.0475 37.1272 57.7191 34.181 58.4587C32.8651 58.7987 32.5009 61.1449 34.1396 61.1704C37.21 61.2469 40.2721 61.2384 43.3508 61.1959C44.5839 82.4902 46.2474 103.776 48.1343 125.045C53.8034 123.523 60.267 121.823 67.7485 119.893C69.5113 119.978 71.4065 122.027 71.8534 123.685C73.8314 131.055 76.2066 140.703 77.0673 148.192C74.7003 153.029 65.5885 153.624 60.8049 155.962C60.4491 156.064 59.6463 156.684 59.6463 156.684C59.787 157.237 59.9277 159.184 60.0766 159.736L60.1263 159.923C64.4712 176.143 76.339 215.424 83.9612 236.668C84.2012 237.586 84.2509 241.343 83.7791 242.465C81.2136 248.747 74.9321 250.524 68.8326 252.249C68.2947 252.402 67.7568 252.547 67.2188 252.7C65.1995 253.27 63.2877 253.72 61.5498 253.771C62.0132 257.928 62.4767 262.076 62.9318 266.233C63.147 268.214 63.3539 270.211 63.5691 272.201C66.0767 271.079 68.6754 270.135 71.2244 269.412C71.3651 269.378 73.2686 269.132 73.401 269.089L73.5334 269.047C94.1986 265.97 111.835 296.428 108.872 340.827C108.351 342.57 107.995 344.414 107.341 346.199C103.319 353.867 96.4497 358.865 87.9089 361.271C83.0012 362.657 77.8535 362.886 73.1113 361.705C73.8562 368.386 74.6259 375.076 75.4121 381.758C81.9336 379.284 92.0386 376.3 115.203 370.307C116.494 370.384 117.876 371.872 118.199 373.079C119.631 378.451 121.369 385.464 121.989 390.922C120.26 394.432 113.622 394.866 110.147 396.575C109.882 396.643 109.302 397.102 109.302 397.102C109.41 397.501 109.518 398.912 109.617 399.32L109.65 399.456C112.82 411.272 121.46 439.877 127.013 455.34C127.195 456.012 127.22 458.757 126.881 459.573C125.018 464.147 120.442 465.439 115.989 466.697C115.6 466.808 115.203 466.918 114.814 467.028C110.635 468.21 106.993 468.805 105.553 463.433L103.112 454.303L94.091 423.207C92.891 420.802 87.4702 402.695 85.8895 402.559C85.724 402.466 84.6398 402.619 84.2509 402.729C83.5888 402.84 80.6756 403.783 78.2094 404.591C81.5115 430.339 85.2854 456.012 90.011 481.497C86.6261 481.794 83.2743 482.015 79.9804 482.075C78.259 482.1 78.5983 484.829 80.2949 484.795C83.7129 484.735 87.1226 484.582 90.5406 484.472C90.7724 485.713 90.971 486.971 91.2027 488.212C91.5337 489.929 94.0166 489.657 93.851 487.889C93.7434 486.716 93.6441 485.552 93.5531 484.387C206.421 480.562 317.394 453.538 429.874 444.519C430.213 447.205 430.569 449.883 430.892 452.569C431.148 454.634 434.07 454.226 433.987 452.186C433.871 449.534 433.689 446.89 433.565 444.23C437.397 443.932 441.237 443.601 445.069 443.346C446.931 443.226 447.005 440.013 445.118 439.954L445.143 439.971ZM211.18 79.77C211.354 79.719 212.62 79.3619 212.794 79.3109C213.15 79.2089 214.226 78.9114 214.226 78.9114C217.379 78.4184 231.084 75.5366 234.055 75.0946C238.971 74.695 241.098 81.2236 244.64 83.6038L261.382 105.043C262.806 106.037 262.723 106.454 263.832 107.729C264.676 108.681 270.858 116.638 271.827 117.36C274.756 121.1 277.239 125.342 280.699 128.148C280.55 127.595 279.763 124.637 279.557 123.906C277.388 115.796 274.185 108.171 272.017 100.07C271.868 99.5086 271.421 97.851 271.372 97.6725C269.394 88.1177 266.646 78.5799 264.486 69.0846C264.494 67.6904 265.686 66.3643 266.894 65.8203C268.103 65.2847 272.572 63.2276 273.292 63.0321C273.474 62.981 278.671 61.5104 280.467 61.0004C282.263 60.4903 290.919 58.2462 290.886 60.2438C291.921 64.1116 292.55 67.903 293.535 71.5838C293.982 73.2499 294.495 75.8766 295.48 77.3813L299.675 93.0481C299.949 93.3711 300.578 94.9777 300.677 95.3518C300.718 95.5303 300.76 97.1029 300.809 97.2899C300.859 97.4684 301.562 98.6671 301.612 98.8456L301.662 99.0326L301.711 99.2196C301.811 99.5936 301.794 100.979 301.902 101.353L304.658 111.673C304.591 112.88 304.84 113.807 305.138 114.912C309.334 130.579 315.458 145.506 319.546 160.799C319.894 162.082 321.491 168.772 321.839 170.065C322.749 174.17 320.457 178.591 316.79 180.019C316.252 180.172 316.12 180.41 315.582 180.563C309.416 183.496 302.539 186.632 295.893 188.511C293.932 189.064 292.401 187.712 291.375 186.02C290.588 185.255 287.684 180.92 286.856 179.968C283.877 176.049 268.665 158.138 265.496 154.279C265.165 153.777 261.631 149.221 261.258 148.541C260.745 148.09 259.578 146.628 259.404 146.679L259.049 146.781L264.279 166.324C265.363 168.203 265.537 169.529 266.025 171.374C267.018 175.063 267.639 178.854 268.624 182.535C268.963 183.819 269.675 185.017 270.072 186.488C271.703 192.566 266.621 195.983 261.962 197.301L246.891 201.56C245.633 201.908 243.051 201.653 242.563 199.809L210.857 82.8557C210.659 82.1162 210.443 80.5945 211.197 79.787L211.18 79.77ZM303.127 291.319C302.796 290.103 300.652 283.158 300.611 283.031C300.47 282.486 299.287 278.61 299.146 278.066C299.071 277.794 298.517 275.193 298.409 274.793C298.376 274.657 298.335 274.521 298.335 274.521C298.227 274.122 297.375 271.453 297.267 271.045C296.795 269.293 294.76 261.158 294.246 259.263L282.362 213.818C282.296 213.546 281.741 212.543 281.659 212.271C281.659 212.271 281.625 212.143 281.592 211.999C280.939 209.576 285.441 208.445 286.939 207.153L295.091 204.841C295.215 204.807 298.029 204.747 299.113 204.577C299.973 204.628 300.685 205.147 301.538 205.198C303.458 204.951 303.524 205.224 303.996 206.975C304.029 207.111 304.062 207.255 304.095 207.374C305.866 213.996 307.347 220.55 308.514 227.045C313.927 246.715 320.614 270.101 324.768 289.84C323.775 292.441 319.811 295.603 317.386 296.572C313.571 297.652 311.576 298.655 308.291 299.581C306.71 300.032 304.898 299.08 304.509 297.601C304.36 297.057 304.426 296.751 304.343 295.901C304.161 295.229 303.325 292.118 303.118 291.31L303.127 291.319ZM177.099 87.2166L188.231 84.0713C188.413 84.0203 192.245 83.9268 193.726 83.7058C194.901 83.7738 195.869 84.4879 197.045 84.5474C199.652 84.2073 199.751 84.5814 200.388 86.9786C200.438 87.1656 200.487 87.3526 200.537 87.5311C202.954 96.5589 204.973 105.51 206.579 114.385C213.961 141.239 223.089 173.167 228.767 200.115C227.409 203.676 221.989 207.978 218.686 209.304C213.481 210.774 210.75 212.143 206.272 213.41C204.112 214.022 201.646 212.73 201.108 210.698C200.91 209.958 200.992 209.55 200.868 208.386C200.62 207.459 199.494 203.226 199.188 202.121C198.75 200.463 195.82 190.985 195.77 190.789C195.572 190.05 193.958 184.762 193.767 184.023C193.668 183.657 192.907 180.104 192.758 179.551C192.716 179.364 192.658 179.177 192.658 179.177C192.509 178.625 191.351 174.978 191.202 174.434C190.556 172.037 187.775 160.926 187.089 158.351L170.859 96.3124C170.76 95.9468 170.007 94.5782 169.908 94.2042C169.908 94.2042 169.858 94.0172 169.808 93.8301C168.914 90.5149 175.072 88.9762 177.108 87.2081L177.099 87.2166ZM210.055 257.783L210.088 257.919C213.266 269.795 221.955 298.561 227.542 314.126C227.724 314.806 227.757 317.552 227.409 318.376C225.531 322.984 220.929 324.285 216.468 325.543C216.071 325.645 215.674 325.764 215.285 325.874C211.081 327.064 207.414 327.659 205.974 322.261L203.516 313.072L194.438 281.806C193.229 279.392 187.775 261.175 186.187 261.039C186.021 260.946 184.937 261.107 184.54 261.218C183.447 261.379 176.321 263.827 175.014 264.201C174.153 264.159 172.995 264.04 172.672 262.833C172.167 258.327 169.179 251.909 167.971 246.877C167.897 246.605 167.863 246.469 167.789 246.205C167.375 245.738 167.301 245.466 167.193 245.066C166.903 243.987 169.519 242.669 170.537 242.236C177.348 239.15 185.516 236.396 215.674 228.609C216.965 228.685 218.355 230.182 218.678 231.397C220.126 236.795 221.873 243.859 222.502 249.342C220.764 252.879 214.093 253.312 210.592 255.029C210.328 255.106 209.748 255.556 209.748 255.556C209.856 255.964 209.955 257.384 210.063 257.792L210.055 257.783ZM79.8232 124.62C79.8232 124.62 79.5832 123.702 79.4756 123.328C78.9377 121.296 78.8135 120.148 78.3087 117.505C79.2439 115.26 83.0508 113.594 85.3847 112.931C85.5667 112.88 86.4605 112.634 86.6343 112.583C87.5364 112.328 94.2235 110.636 95.1173 110.381C95.2993 110.33 96.8718 109.692 97.2194 109.59C97.2194 109.59 98.6015 109.004 99.1477 108.851C102.375 107.933 106.017 107.108 109.22 106.794C110.089 107.151 110.924 108.103 111.471 108.74C111.57 109.106 112.307 111.869 112.406 112.243L126.674 165.517C126.723 165.695 126.963 165.831 126.963 165.831L142.572 161.419L142.828 160.943L132.094 113.62C131.846 112.693 131.292 112.064 131.043 111.138C130.257 108.196 131.714 108.57 132.517 106.564C133.22 105.57 134.172 101.931 135.736 101.285C136.274 101.141 138.426 100.529 138.79 100.427C139.684 100.172 141.835 99.5681 142.017 99.5171C146.784 98.565 151.709 96.7799 156.997 97.0689C158.917 97.7235 159.736 100.061 160.233 101.906C160.581 103.198 160.771 103.937 160.531 105.196C161.127 107.406 184.374 194.224 183.654 192.243C184.449 195.193 187.8 207.731 188.537 210.494C188.752 212.016 187.329 213.214 186.451 214.251C185.649 214.872 183.182 217.158 182.562 217.728C181.039 218.553 173.483 222.072 171.919 222.718C171.745 222.769 169.411 223.424 168.691 223.628C167.069 224.078 160.258 226.008 159.314 222.514L150.724 190.441C150.633 190.067 149.408 189.829 149.408 189.829C147.38 190.194 138.31 192.362 136.108 192.787L135.388 192.991C133.237 193.603 134.817 197.318 134.975 198.661C135.57 200.871 138.186 212.815 139.03 215.951C139.195 217.286 140.412 221.111 140.271 222.735C139.518 231.474 130.911 233.905 123.727 235.937C120.318 236.897 117.181 238.181 114.243 235.835C111.206 225.192 94.48 171.425 79.8149 124.611L79.8232 124.62ZM108.864 282.163C107.275 276.221 105.611 270.016 104.808 263.853C104.519 261.175 109.294 260.546 110.875 260.113C111.239 259.866 113.929 258.812 114.442 258.667C114.582 258.625 116.949 257.962 117.868 257.707C120.492 256.967 125.043 254.944 127.261 257.953C127.303 258.089 127.882 260.249 128.023 260.784C129.256 265.383 130.05 269.939 131.283 274.538C133.237 281.823 135.678 288.837 137.466 296.028C137.664 296.258 138.177 297.125 138.219 297.261C138.45 297.635 139.526 301.103 139.766 301.477C140.793 304.231 143.275 307.164 143.673 310.25C144.194 311.117 146.627 314.934 147.14 315.809C148.191 317.11 149.499 317.756 150.972 318.504C151.965 318.513 152.826 318.564 153.62 318.334C155.193 317.883 155.193 316.285 155.085 314.866C155.209 314.254 154.969 311.27 154.928 310.547C154.746 309.876 153.587 305.557 153.413 304.886C152.983 303.271 151.891 299.216 151.825 298.952C151.436 298.034 147.538 288.241 140.826 263.708C139.998 260.606 139.088 257.222 138.782 253.975C138.972 253.627 139.303 253.253 139.526 253.04C140.048 252.896 142.415 252.224 142.944 252.079C143.863 251.816 146.362 251.119 146.627 251.034C148.464 250.515 157.874 248.144 159.877 247.719C160.514 247.974 160.994 248.713 161.176 249.393C163.312 254.74 165.091 260.342 166.647 266.14C165.778 262.909 181.428 309.17 174.584 325.339C174.484 325.5 174.385 326.699 174.286 326.869C174.352 327.141 174.128 327.345 174.128 327.345L170.321 334.23C170.222 334.4 169.676 334.995 169.419 335.072C165.604 337.75 161.805 339.407 157.601 340.589C145.775 343.93 138.575 342.918 130.05 334.29C128.85 333.023 128.635 331.638 127.667 330.167C127.634 330.031 126.98 329.198 126.98 329.198C125.482 327.294 124.729 325.033 123.934 323.086C122.345 318.742 120.235 314.543 118.778 310.165C116.891 304.163 114.74 298.23 112.58 292.305C111.247 288.905 109.815 285.683 108.872 282.163H108.864ZM201.671 439.044C201.092 439.495 199.287 441.161 198.832 441.577C197.723 442.181 192.236 444.74 191.094 445.207C190.954 445.25 189.257 445.726 188.744 445.87C187.56 446.202 182.595 447.604 181.916 445.063L175.659 421.703C175.585 421.431 174.691 421.244 174.691 421.244C173.226 421.516 166.605 423.097 165.008 423.403L164.487 423.547C162.914 423.989 164.065 426.701 164.181 427.679C164.611 429.294 166.523 437.99 167.135 440.277C167.251 441.246 168.137 444.026 168.037 445.216C167.491 451.583 161.21 453.368 155.987 454.83C153.505 455.536 151.229 456.462 149.085 454.753C146.867 447.009 134.693 407.847 124.017 373.75C124.017 373.75 123.835 373.079 123.769 372.807C123.372 371.327 123.289 370.486 122.916 368.565C123.603 366.924 126.376 365.717 128.072 365.232C128.205 365.198 128.859 365.011 128.983 364.969C129.637 364.782 134.511 363.558 135.165 363.371C135.297 363.328 136.439 362.869 136.688 362.793C136.688 362.793 137.706 362.359 138.095 362.249C140.453 361.586 143.102 360.982 145.427 360.761C146.056 361.008 146.669 361.713 147.074 362.172C147.149 362.444 147.686 364.459 147.761 364.722L158.147 403.52C158.189 403.647 158.354 403.741 158.354 403.741L169.726 400.527L169.916 400.187L162.087 365.717C161.913 365.045 161.499 364.578 161.317 363.906C160.738 361.756 161.805 362.036 162.401 360.574C162.906 359.851 163.601 357.199 164.735 356.723C165.124 356.613 166.697 356.171 166.961 356.094C167.615 355.907 169.188 355.474 169.312 355.431C172.779 354.743 176.371 353.442 180.22 353.654C181.61 354.131 182.214 355.839 182.57 357.182C182.818 358.117 182.967 358.653 182.785 359.571C183.215 361.186 200.156 424.414 199.618 422.978C200.198 425.12 202.639 434.25 203.185 436.264C203.351 437.378 202.308 438.245 201.671 439.002V439.044ZM261.225 425.248L224.364 437.251C223.429 437.948 221.566 438.33 220.78 438.56C220.259 438.704 218.397 439.087 217.999 439.197C217.346 439.384 216.51 438.891 216.071 438.296C211.685 423.505 195.472 376.096 191.011 356.273C190.639 355.95 190.531 355.542 190.424 355.142C189.091 350.178 224.364 340.648 223.503 340.597C226.896 339.637 234.096 337.605 235.462 342.706C235.718 343.641 235.661 344.525 235.884 345.332C236.53 347.746 238.135 350.033 238.814 352.583C239.608 355.542 238.847 357.913 237.845 360.515C237.39 361.951 236.116 362.444 235.106 362.878L234.974 362.912C229.321 365.955 223.213 367.825 217.131 369.253L216.799 369.636C216.799 369.636 217.089 370.707 217.164 370.979C218.347 375.408 219.986 379.412 221.012 383.756L221.31 383.815C221.434 383.781 221.997 383.764 222.138 383.73C224.488 383.067 226.722 381.426 229.065 380.755C231.671 380.015 233.923 380.534 235.263 382.905C235.685 383.943 237.299 388.397 237.547 389.332C237.581 389.459 238.284 391.576 238.499 392.384C238.64 392.919 239.087 395.095 239.194 395.504C239.459 398.606 238.979 400.468 236.041 401.59C234.866 401.922 229.056 403.86 228.013 404.149L227.641 404.837C227.856 405.636 229.47 411.672 229.685 412.488L254.339 404.803C254.993 404.616 255.837 405.679 256.119 406.18C257.898 410.737 262.309 420.904 261.225 425.248V425.248ZM239.6 286.329C239.6 286.329 239.418 285.649 239.343 285.385C239.31 285.249 239.128 284.578 239.128 284.578L239.319 284.229L258.031 279.673C258.295 279.596 258.784 279.316 258.858 279.588C258.924 279.851 259.04 280.259 259.148 280.667C260.331 284.544 260.356 294.124 269.195 290.171C271.62 289.202 271.62 284.986 271.082 282.963C269.377 276.621 261.175 275.006 255.705 273.068C255.366 272.872 255.2 272.779 254.861 272.583C244.226 268.766 233.848 264.873 230.703 253.125C230.67 252.998 230.695 252.547 230.695 252.547C231.167 251.688 231.001 251.595 230.298 251.059C230.091 250.83 229.247 248.739 229.18 248.467C229.139 248.331 228.733 247.872 228.733 247.872C228.733 247.872 228.626 247.464 228.593 247.328C224.438 231.797 238.036 220.839 252.337 216.657C277.67 209.346 283.132 233.947 284.721 247.302C284.787 247.574 283.008 247.778 282.61 247.889C282.081 248.042 280.641 248.45 280.641 248.45C277.968 249.062 269.592 251.569 266.894 252.045C265.719 252.385 265.462 251.433 265.14 250.796C265.118 250.705 265.096 250.614 265.073 250.524C264.784 249.444 263.484 244.582 263.162 243.366C262.235 240.433 259.338 236.464 255.258 237.611C245.401 240.399 257.062 252.785 263.294 254.953C264.527 255.327 265.76 255.709 266.861 256.117C281.419 260.869 297.251 266.123 291.35 290.018C290.53 293.299 289.868 296.096 287.857 299.139C284.108 304.69 278.398 307.623 271.818 309.476C254.861 314.262 246.999 308.643 239.608 286.337L239.6 286.329ZM335.022 390.386C334.898 390.998 333.582 394.985 333.301 395.495C333.243 395.801 332.995 398.037 332.904 398.207C332.804 398.377 331.728 400.128 331.671 400.434C331.58 400.604 331.439 401.658 331.439 401.658C331.306 401.692 330.669 402.457 330.437 402.661C329.221 403.877 327.715 405.602 326.291 406.58C322.054 409.657 318.967 411.255 314.125 412.624C309.027 414.061 303.747 414.826 298.641 415.693C296.001 416.296 292.897 416.313 292.07 413.219C291.855 412.42 292.07 411.629 291.888 410.958C291.855 410.822 291.813 410.694 291.813 410.694C290.497 407.881 289.686 405.373 288.859 402.279C287.063 395.571 285.49 388.652 283.695 381.936C283.587 381.537 283.405 380.865 283.405 380.865C283.33 380.593 281.981 377.66 281.874 377.252C281.377 375.952 279.631 369.95 279.267 368.599C279.234 368.463 278.679 367.468 278.613 367.205L278.572 367.069C278.539 366.933 278.464 366.669 278.464 366.669C278.423 366.533 278.406 365.385 278.332 365.122L278.299 364.986C277.14 360.693 275.336 353.399 273.267 349.362C273.085 348.699 272.183 345.332 271.976 344.525C271.686 343.462 270.751 339.968 270.676 339.696C270.287 338.217 268.88 331.391 268.64 330.014C267.904 327.761 271.115 324.548 273.076 323.995L296.34 317.416C296.605 317.339 298.244 317.169 298.674 317.195C305.436 316.719 311.941 316.328 317.105 320.935C319.894 323.46 321.599 326.155 322.575 329.784C322.683 330.184 322.964 331.264 322.964 331.264C322.873 331.434 322.89 333.601 322.931 333.729C323.328 336.798 323.999 338.77 322.948 341.66C322.815 341.702 322.153 342.901 322.054 343.08C322.128 343.352 322.724 345.06 322.666 345.358C322.699 345.494 322.641 345.8 322.592 346.106C321.259 351.104 318.528 354.046 315.656 358.032C315.565 358.202 315.276 358.721 315.276 358.721C315.309 359.869 321.433 360.727 323.072 361.577C327.963 364.085 332.995 368.157 334.534 373.929C335.651 378.094 336.198 386.459 335.006 390.403L335.022 390.386ZM316.823 221.077C315.499 216.657 313.877 212.177 312.644 207.587C312.57 207.323 312.032 205.3 311.924 204.892C311.419 203.005 315.375 202.461 316.128 202.104C316.393 202.027 318.578 200.693 319.563 200.123C319.695 200.081 320.183 199.8 320.308 199.766C323.262 198.644 325.066 197.989 327.566 197.284C340.576 193.603 356.598 192.71 366.455 203.141C371.445 208.564 374.904 216.725 376.75 223.611C376.965 224.427 377.544 226.586 377.544 226.586C377.793 228.549 378.844 237.254 378.918 239.116C378.918 241.734 378.902 245.372 379.158 247.914C379.191 248.05 379.373 249.742 379.307 250.056C379.249 250.362 377.933 252.334 377.876 252.632C376.899 254.8 377.71 255.726 377.387 257.698C377.296 257.877 376.493 259.118 376.436 259.424C376.477 259.56 376.965 260.869 376.874 261.039C376.94 261.311 376.022 262.586 375.964 262.901C375.178 266.318 373.423 269.268 371.47 272.014C366.107 280.497 354.264 286.456 344.805 289.134C343.1 289.619 336.967 290.469 336.164 287.502C336.131 287.374 336.024 286.966 336.024 286.966C335.916 286.558 335.13 282.572 335.022 282.163C335.022 282.163 334.989 282.027 334.956 281.891C333.003 274.598 331.232 269.574 329.411 262.255C328.799 261.558 328.584 260.75 328.327 259.798C327.748 257.639 327.607 255.505 327.019 253.346C326.299 250.643 325.083 248.229 324.33 245.398C323.8 243.944 323.56 241.981 322.633 240.637C322.07 239.056 319.869 232.417 319.43 230.802C319.141 229.723 317.113 222.157 316.823 221.077V221.077ZM394.328 373.045C393.807 374.779 393.459 376.615 392.797 378.375C388.792 386.008 381.964 390.964 373.481 393.37C365.379 395.665 356.573 394.832 350.11 389.578C349.431 388.618 346.551 385.243 345.914 384.419C342.893 380.5 341.8 375.901 340.062 371.48L334.484 350.671C333.301 346.242 332.44 338.829 332.432 334.069C332.457 333.627 332.548 327.676 332.631 325.347C333.061 312.23 345.516 305.243 356.896 302.03C357.02 301.996 358.932 301.749 359.056 301.715L359.188 301.673C379.738 298.612 397.266 328.892 394.328 373.045V373.045Z" fill="#C1EE88"/>
<path d="M73.641 321.59C77.2245 336.559 81.1225 342.144 84.4247 341.787C84.5488 341.745 84.8136 341.677 84.9461 341.634C86.2702 341.26 87.553 338.141 87.6358 337.393C88.7282 328.807 86.593 315.027 84.4247 306.934C84.4247 306.934 84.3916 306.79 84.3502 306.662C83.9447 304.597 80.5432 289.287 76.43 290.307C76.19 289.942 76.0576 289.976 75.7928 290.052C73.0369 290.826 68.8161 293.044 69.4451 302.735C69.5527 304.733 70.6451 310.386 70.6699 310.522C70.7858 310.93 71.7955 314.704 72.1513 316.056C72.3748 316.872 73.3845 320.655 73.641 321.59Z" fill="#C1EE88"/>
<path d="M386.946 64.4091C385.779 68.6935 385.067 73.2583 383.776 77.7892L383.644 78.0272C381.856 80.7135 381.451 82.8132 379.663 85.4994C377.453 89.4862 374.714 92.2489 372.355 95.6832L372.405 95.8702L372.455 96.0573C372.504 96.2358 372.736 96.3718 372.91 96.3208C380.458 96.2018 387.103 99.5511 392.847 104.753C390.943 88.9082 389.214 73.0373 387.699 57.158C387.343 59.4702 387.649 61.9354 386.954 64.4006L386.946 64.4091Z" fill="#C1EE88"/>
<path d="M399.7 157.756C399.7 157.756 399.766 157.739 399.774 157.73C402.108 157.067 413.19 153.752 415.515 153.097C415.603 152.933 415.692 152.774 415.78 152.621C417.054 150.879 416.757 149.765 416.161 147.555C412.577 134.158 404.657 115.465 392.839 104.754C394.966 122.435 397.267 140.1 399.7 157.756V157.756Z" fill="#C1EE88"/>
<path d="M409.3 174.757C409.548 174.774 406.585 175.633 402.364 176.959C403.581 185.562 404.806 194.173 406.047 202.776C411.104 201.441 416.119 199.732 420.82 197.208L420.952 197.165C421.97 196.74 423.245 196.23 423.716 194.794C424.718 192.192 425.488 189.787 424.693 186.82C424.006 184.253 422.401 181.949 421.747 179.526C421.532 178.71 421.573 177.826 421.325 176.882C419.959 171.757 412.726 173.797 409.308 174.766L409.3 174.757Z" fill="#C1EE88"/>
<path d="M413.446 239.371L413.826 238.682C414.878 238.385 420.729 236.447 421.904 236.115C424.867 234.985 425.338 233.115 425.065 229.986C424.966 229.587 424.519 227.385 424.37 226.849C424.155 226.042 423.443 223.908 423.402 223.781C423.145 222.829 421.531 218.357 421.109 217.312C419.769 214.931 417.509 214.413 414.869 215.152C412.618 215.79 410.475 217.286 408.232 218.009C410.74 235.393 413.239 252.777 415.647 270.178L447.212 259.892C448.304 255.522 443.868 245.296 442.072 240.714C441.799 240.213 440.947 239.15 440.285 239.337L415.498 247.064C415.283 246.248 413.653 240.179 413.429 239.363L413.446 239.371Z" fill="#C1EE88"/>
<path d="M387.84 56.2147C387.741 55.8407 388.237 54.115 388.419 54.0725C388.626 51.2418 387.501 49.1761 387.575 46.5834C387.873 39.7573 387.741 35.6345 385.821 29.2334C385.705 28.0773 386.243 27.9243 386.003 26.9977C385.837 26.3857 385.498 25.8501 385.001 25.5356C385.788 36.085 386.681 46.6259 387.699 57.1583C387.749 56.8437 387.765 56.5207 387.848 56.2147H387.84Z" fill="#C1EE88"/>
<path d="M463.715 348.24C456.829 341.949 449.141 336.33 442.925 329.419C442.892 329.283 442.752 328.748 442.71 328.62C442.421 327.549 442.553 327.507 442.975 325.943C443.306 322.967 454.735 287.961 453.883 280.557C453.808 280.285 453.833 279.843 453.436 279.954C452.137 280.328 445.863 282.096 444.556 282.461C440.501 283.609 434.848 285.054 430.644 286.678L424.238 314.203L421.193 311.423C424.031 333.687 426.589 355.984 428.715 378.315C433.598 373.079 433.516 359.52 435.651 358.917L435.783 358.883C435.957 358.976 436.652 359.503 436.818 359.597L448.495 369.585C449.215 370.682 450.316 371.668 451.623 371.302L469.533 366.236C472.926 365.275 475.351 362.283 474.283 358.254C473.596 355.704 466.264 349.83 463.723 348.24H463.715Z" fill="#C1EE88"/>
<path d="M74.7998 405.713C75.3046 405.569 76.6785 405.118 78.2261 404.608C77.2578 397 76.3309 389.383 75.4371 381.758C73.517 382.481 71.8867 383.169 70.3473 383.866C69.3376 384.291 66.739 385.609 67.0286 386.68C67.1362 387.08 67.2107 387.352 67.6162 387.811C67.6824 388.074 67.7238 388.21 67.79 388.482C68.99 393.489 71.9611 399.873 72.4577 404.353C72.7722 405.56 73.9308 405.662 74.7915 405.713H74.7998Z" fill="#C1EE88"/>
<path d="M51.1718 235.223L54.5318 247.761C55.8146 252.539 58.3802 253.856 61.5747 253.763C56.8243 210.936 51.9828 168.025 48.1593 125.045C22.6361 131.897 13.7559 135.042 6.15024 138.485C4.76815 139.08 1.19291 140.873 1.59016 142.353C1.73913 142.905 1.83844 143.271 2.39293 143.908C2.49224 144.274 2.5419 144.461 2.64121 144.826C4.28814 151.695 8.36821 160.459 9.04684 166.605C9.49375 168.263 11.0745 168.416 12.2579 168.475C14.0456 167.965 23.7699 164.624 25.2596 164.412C25.8058 164.259 27.2872 164.038 27.5106 164.165C29.6872 164.344 37.1108 189.217 38.7743 192.515L51.1718 235.206V235.223Z" fill="#C1EE88"/>
<path d="M73.1366 361.705C69.818 331.859 66.8303 301.97 63.6027 272.184C54.8384 276.103 47.1831 282.606 46.8603 292.858C46.7775 295.195 46.6865 301.18 46.6617 301.622C46.6782 306.408 47.5389 313.863 48.7307 318.317L54.3335 339.246C56.0881 343.692 57.1888 348.316 60.2178 352.252C60.8633 353.085 63.7599 356.486 64.4386 357.446C67.029 359.554 70 360.923 73.1366 361.697V361.705Z" fill="#C1EE88"/>
<path d="M69.4958 41.2702C97.9901 39.128 126.741 30.6528 154.979 26.0369C191.782 20.0269 228.925 16.3801 265.679 10.1321C266.142 10.0556 266.034 9.27352 265.563 9.29052C229.479 10.6761 193.429 16.3546 157.801 22.1606C128.884 26.8785 97.0383 30.6103 69.4378 40.9472C69.2806 41.0067 69.2888 41.2872 69.4792 41.2702H69.4958Z" fill="#C1EE88"/>
<path d="M270.545 10.1749C272.755 11.1099 275.908 10.7444 277.753 9.15477C278.068 8.88274 277.778 8.45771 277.455 8.42371C275.386 8.20269 272.473 8.44921 270.545 9.27378C270.115 9.46079 270.106 9.99634 270.545 10.1749V10.1749Z" fill="#C1EE88"/>
<path d="M273.218 476.498C294.181 476.005 315.467 472.256 336.256 469.536C359.296 466.527 382.478 463.747 404.939 457.542C405.526 457.38 405.427 456.36 404.79 456.42C383.098 458.417 361.647 462.37 340.071 465.413C317.908 468.542 294.818 470.106 273.135 475.861C272.787 475.954 272.862 476.507 273.218 476.498V476.498Z" fill="#C1EE88"/>
<path d="M41.2656 320.978C40.5373 336.313 50.4023 357.046 63.3377 364.96C63.6936 365.181 64.2067 364.722 63.9336 364.348C59.299 357.939 54.3582 351.895 50.5182 344.907C46.3636 337.35 44.3856 329.053 41.6959 320.927C41.6132 320.68 41.2822 320.731 41.2656 320.986V320.978Z" fill="#C1EE88"/>
<path d="M404.583 105.825C411.593 113.994 416.658 120.523 420.266 131.029C423.361 140.049 425.025 149.655 427.276 158.929C427.4 159.43 428.128 159.311 428.137 158.81C428.41 143.041 422.774 110.381 404.856 105.349C404.575 105.272 404.409 105.621 404.583 105.825V105.825Z" fill="#C1EE88"/>
</g>
</svg>
