<svg width="227" height="233" viewBox="0 0 227 233" fill="none" xmlns="http://www.w3.org/2000/svg">
<ellipse cx="113.421" cy="116.5" rx="113.421" ry="116.5" fill="#E5FBCC"/>
<mask id="mask0_515_1030" style="mask-type:alpha" maskUnits="userSpaceOnUse" x="0" y="0" width="227" height="233">
<ellipse cx="113.421" cy="116.5" rx="113.421" ry="116.5" fill="#D2FC9D"/>
</mask>
<g mask="url(#mask0_515_1030)">
<path d="M143.342 160.537C142.965 159.132 141.943 157.787 140.641 158.154C140.269 158.258 138.364 158.862 138.415 159.055L140.383 166.635C140.434 166.825 140.681 166.756 140.743 166.74C143.157 166.06 143.906 162.634 143.342 160.537V160.537Z" fill="#C1EE88"/>
<path d="M167.021 122.653C170.093 118.619 168.973 111.442 168.016 107.859C167.914 107.473 167.64 106.45 167.624 106.39C166.735 103.065 163.576 101.273 161.209 102.425C161.714 104.824 163.031 108.237 163.65 110.54C164.591 114.058 165.775 119.223 167.025 122.653H167.021Z" fill="#C1EE88"/>
<path d="M190.63 96.5876C190.63 96.5876 190.767 97.0988 190.798 97.2276C191.366 99.337 192.146 101.249 192.632 103.31L192.773 103.338C192.836 103.322 193.102 103.314 193.161 103.298C193.216 103.282 193.271 103.258 193.322 103.238C192.977 100.83 192.628 98.4312 192.283 96.024C191.786 96.1568 191.284 96.2897 190.782 96.4064L190.63 96.5876V96.5876Z" fill="#C1EE88"/>
<path d="M144.129 177.891C144.067 177.907 143.961 178.007 143.98 178.068L146.101 185.745C146.152 185.938 146.399 185.865 146.524 185.833C150.749 184.702 150.396 181.385 150.051 180.113C149.745 178.97 148.872 176.208 144.129 177.891V177.891Z" fill="#C1EE88"/>
<path d="M175.165 160.569C174.969 159.599 173.37 152.389 171.438 152.872C171.324 152.695 171.265 152.715 171.14 152.747C169.843 153.114 167.852 154.152 168.146 158.721C168.201 159.663 168.714 162.324 168.73 162.384C168.781 162.574 169.259 164.353 169.427 164.989C169.529 165.371 170.007 167.155 170.125 167.597C171.814 174.642 173.648 177.271 175.204 177.106C175.263 177.086 175.388 177.053 175.451 177.033C176.066 176.86 176.678 175.391 176.713 175.033C177.226 170.991 176.223 164.506 175.2 160.69C175.2 160.69 175.184 160.625 175.169 160.561L175.165 160.569Z" fill="#C1EE88"/>
<path d="M210.797 208.348C208.94 208.291 207.078 208.328 205.212 208.324C204.711 198.582 203.943 188.86 203.014 179.151C202.634 179.561 202.195 179.875 201.666 180.024C199.373 180.672 196.735 181.007 194.486 181.3C193.428 181.329 193.467 180.974 192.679 180.511C192.268 180.214 191.648 180.391 191.476 179.759L191.445 179.63C192.883 177.307 196.853 162.783 197.069 161.354L178.124 143.32L178.073 143.127C178.002 142.873 177.971 142.748 178.261 142.595C178.39 142.563 179.131 142.35 179.315 142.297C182.47 141.408 186.428 140.015 189.215 139.23C191.119 138.896 191.688 140.514 192.875 141.476L199.451 147.47C198.621 140.957 197.743 134.448 196.837 127.938L194.231 128.788C193.784 129.118 192.895 129.303 192.522 129.408C192.276 129.48 191.382 129.661 191.198 129.714C190.884 129.802 190.488 129.573 190.285 129.287C188.196 122.242 180.471 99.6672 178.347 90.2233C178.171 90.0663 178.12 89.8771 178.069 89.6839C177.622 88.0214 185.793 85.284 190.539 83.7986C190.112 80.7714 189.697 77.7362 189.277 74.705C188.772 74.8499 185.836 75.7718 184.833 76.0576C184.069 76.2709 182.004 76.762 181.917 76.7862L181.557 76.7983C179.778 69.1337 178.762 57.496 171.281 53.7844C170.219 53.241 168.69 52.6412 167.585 52.9512C167.585 52.9512 167.029 52.923 167.017 53.2088C167.248 54.0823 168.177 58.2326 168.412 59.1021C168.436 59.1907 168.596 59.8026 168.643 59.9757C168.945 61.1109 169.506 62.1736 169.811 63.3088C170.818 67.0606 171.461 70.8244 172.574 74.6406C173.162 78.8875 168.534 81.4155 165.053 82.3977C164.544 82.5427 163.184 82.9251 163.016 82.9734C162.671 83.07 161.44 83.231 161.244 83.1908C161.158 83.2149 160.213 83.1062 159.939 83.0901C159.853 83.1143 159.72 82.9653 159.72 82.9653C159.61 82.9009 159.457 82.6634 159.457 82.6634L142.828 23.9836C142.574 23.0215 149.118 20.5136 149.695 20.26C149.781 20.2359 150.968 19.9018 151.305 19.8051C151.732 19.6884 152.751 19.3986 152.838 19.3704C153.006 19.3221 154.715 19.2174 154.883 19.1691C157.274 18.8712 157.427 19.1087 158.074 21.1778C158.117 21.3509 158.164 21.5281 158.211 21.7012L158.234 21.7897C158.375 22.313 158.324 22.8001 158.465 23.3194C159.12 25.7629 160.076 28.311 160.813 30.7304C161.236 32.3043 163.172 39.5462 163.596 41.1202L164.211 42.7304C164.34 42.8834 164.575 42.7223 164.658 42.6982C166.355 42.2192 168.279 37.453 168.694 35.9273C169.788 31.4831 170.219 25.9199 169 21.3791C168.581 19.8092 167.797 18.2473 167.374 16.6773C167.35 16.5847 167.127 16.0856 167.381 16.0131L181.572 12.0037C181.878 11.9151 182.121 11.9715 182.313 12.0963C182.188 10.4056 182.039 8.71487 181.925 7.02416C182.591 6.89132 183.269 6.78263 183.936 6.64173C185.488 6.31567 185.198 4.17007 183.65 4.1741C183.011 4.1741 182.372 4.21033 181.733 4.21838C181.655 2.96645 181.553 1.71854 181.482 0.462582C181.451 -0.137219 180.459 -0.165397 180.44 0.44648C180.401 1.71049 180.444 2.98255 180.424 4.24656C154.045 4.66924 127.524 9.01276 101.399 12.4183C74.8476 15.8803 47.9821 20.0708 21.8613 26.3224C21.7359 25.6139 21.634 24.9055 21.5086 24.201C21.3597 23.3758 20.2114 23.5207 20.2545 24.354C20.2937 25.1269 20.3525 25.8998 20.3917 26.6727C18.9926 27.0148 17.5817 27.3328 16.1865 27.6831C15.5633 27.8441 15.3909 28.9551 16.1669 28.9672C17.6209 29.0034 19.0709 28.9994 20.5288 28.9793C21.1128 39.0632 21.9005 49.143 22.7941 59.2148C25.4787 58.4943 28.5395 57.6892 32.0823 56.7754C32.9171 56.8156 33.8146 57.7858 34.0262 58.5708C34.9629 62.0609 36.0877 66.6298 36.4952 70.1763C35.3744 72.4668 31.0595 72.7486 28.7942 73.8556C28.6257 73.9039 28.2455 74.1978 28.2455 74.1978C28.3122 74.4594 28.3788 75.3813 28.4493 75.6429L28.4729 75.7315C30.5304 83.4122 36.1504 102.014 39.7599 112.074C39.8735 112.509 39.897 114.288 39.6736 114.819C38.4587 117.794 35.4841 118.635 32.5957 119.453C32.341 119.525 32.0863 119.593 31.8315 119.666C30.8753 119.936 29.9699 120.149 29.1469 120.173C29.3664 122.142 29.5859 124.106 29.8014 126.074C29.9033 127.012 30.0013 127.958 30.1032 128.9C31.2907 128.369 32.5213 127.922 33.7284 127.58C33.795 127.564 34.6964 127.447 34.7591 127.427L34.8218 127.407C44.6078 125.95 52.9594 140.373 51.5563 161.398C51.3094 162.224 51.1409 163.097 50.8313 163.942C48.9266 167.573 45.6738 169.94 41.6293 171.08C39.3052 171.736 36.8676 171.844 34.6219 171.285C34.9746 174.449 35.3391 177.617 35.7114 180.781C38.7997 179.61 43.5849 178.197 54.5545 175.359C55.1658 175.395 55.8203 176.099 55.9732 176.671C56.6512 179.215 57.4742 182.536 57.7681 185.121C56.949 186.783 53.8059 186.988 52.1599 187.798C52.0345 187.83 51.7601 188.047 51.7601 188.047C51.8111 188.236 51.862 188.905 51.9091 189.098L51.9247 189.162C53.4258 194.758 57.5173 208.303 60.147 215.626C60.2332 215.944 60.245 217.244 60.0843 217.631C59.2025 219.796 57.0352 220.408 54.9268 221.004C54.7426 221.056 54.5545 221.109 54.3703 221.161C52.3911 221.721 50.6667 222.002 49.9848 219.458L48.8287 215.135L44.5568 200.409C43.9886 199.27 41.4216 190.696 40.673 190.632C40.5946 190.587 40.0812 190.66 39.897 190.712C39.5835 190.764 38.204 191.211 37.0361 191.594C38.5998 203.787 40.3869 215.944 42.6247 228.012C41.0218 228.153 39.4346 228.258 37.8748 228.286C37.0596 228.298 37.2203 229.59 38.0237 229.574C39.6423 229.546 41.257 229.474 42.8755 229.421C42.9853 230.009 43.0793 230.605 43.1891 231.193C43.3458 232.006 44.5216 231.877 44.4432 231.04C44.3922 230.484 44.3452 229.933 44.3021 229.381C97.7508 227.57 150.302 214.772 203.566 210.501C203.727 211.773 203.896 213.042 204.048 214.314C204.17 215.292 205.553 215.099 205.514 214.132C205.459 212.876 205.373 211.625 205.314 210.365C207.129 210.224 208.947 210.067 210.762 209.946C211.644 209.89 211.679 208.368 210.785 208.34L210.797 208.348ZM100.004 37.775C100.087 37.7508 100.686 37.5818 100.768 37.5576C100.937 37.5093 101.446 37.3684 101.446 37.3684C102.94 37.1349 109.43 35.7703 110.837 35.561C113.165 35.3718 114.172 38.4634 115.849 39.5905L123.778 49.7428C124.452 50.2138 124.412 50.4111 124.938 51.0149C125.337 51.4657 128.265 55.2336 128.723 55.5758C130.111 57.347 131.287 59.3557 132.925 60.6842C132.854 60.4225 132.482 59.0216 132.384 58.6754C131.357 54.8351 129.84 51.2242 128.814 47.3879C128.743 47.1222 128.531 46.3373 128.508 46.2527C127.571 41.728 126.27 37.2114 125.247 32.7149C125.251 32.0548 125.815 31.4268 126.388 31.1691C126.96 30.9155 129.076 29.9414 129.417 29.8488C129.503 29.8246 131.965 29.1282 132.815 28.8867C133.665 28.6452 137.765 27.5824 137.749 28.5284C138.239 30.36 138.537 32.1554 139.003 33.8984C139.215 34.6874 139.458 35.9313 139.924 36.6438L141.911 44.0628C142.041 44.2158 142.338 44.9766 142.385 45.1538C142.405 45.2383 142.425 45.983 142.448 46.0716C142.472 46.1561 142.805 46.7237 142.828 46.8082L142.852 46.8968L142.875 46.9854C142.922 47.1625 142.914 47.8186 142.965 47.9958L144.27 52.8827C144.239 53.4543 144.357 53.8931 144.498 54.4164C146.485 61.8355 149.385 68.9042 151.321 76.1461C151.486 76.754 152.242 79.922 152.407 80.5339C152.838 82.4782 151.752 84.5715 150.016 85.2478C149.761 85.3203 149.698 85.433 149.444 85.5054C146.524 86.8942 143.267 88.3796 140.12 89.2693C139.191 89.5309 138.466 88.8909 137.98 88.0898C137.608 87.7275 136.232 85.6745 135.84 85.2236C134.43 83.3679 127.226 74.8861 125.725 73.0586C125.569 72.8211 123.895 70.6634 123.719 70.3414C123.476 70.128 122.923 69.4356 122.841 69.4598L122.672 69.5081L125.149 78.7627C125.663 79.6523 125.745 80.2803 125.976 81.1539C126.446 82.9009 126.74 84.6963 127.207 86.4393C127.367 87.0472 127.704 87.6148 127.893 88.3112C128.665 91.1894 126.258 92.8077 124.052 93.4316L116.915 95.4484C116.319 95.6135 115.097 95.4927 114.865 94.6192L99.8514 39.2363C99.7573 38.886 99.6554 38.1655 100.012 37.7831L100.004 37.775ZM143.545 137.954C143.389 137.378 142.374 134.089 142.354 134.029C142.287 133.771 141.727 131.936 141.66 131.678C141.625 131.549 141.363 130.317 141.312 130.128C141.296 130.064 141.276 129.999 141.276 129.999C141.225 129.81 140.822 128.546 140.771 128.353C140.547 127.524 139.583 123.671 139.34 122.774L133.712 101.253C133.681 101.124 133.418 100.649 133.379 100.521C133.379 100.521 133.364 100.46 133.348 100.392C133.038 99.2445 135.17 98.7091 135.88 98.0972L139.74 97.0023C139.799 96.9862 141.131 96.958 141.645 96.8775C142.052 96.9016 142.389 97.1472 142.793 97.1713C143.702 97.0546 143.734 97.1834 143.957 98.0127C143.973 98.0771 143.988 98.1455 144.004 98.2019C144.843 101.338 145.544 104.441 146.097 107.517C148.66 116.832 151.826 127.906 153.794 137.253C153.324 138.485 151.446 139.983 150.298 140.442C148.491 140.953 147.547 141.428 145.991 141.867C145.242 142.08 144.384 141.629 144.2 140.929C144.129 140.671 144.161 140.526 144.122 140.123C144.035 139.805 143.64 138.332 143.542 137.95L143.545 137.954ZM83.8654 41.3013L89.1366 39.8119C89.2228 39.7878 91.0374 39.7435 91.7389 39.6388C92.2954 39.671 92.7539 40.0092 93.3104 40.0373C94.5449 39.8763 94.592 40.0534 94.8937 41.1886C94.9173 41.2772 94.9408 41.3658 94.9643 41.4503C96.1087 45.7254 97.0649 49.9642 97.8252 54.1669C101.321 66.8834 105.644 82.0032 108.332 94.7641C107.69 96.4508 105.123 98.4877 103.559 99.1157C101.094 99.8121 99.8005 100.46 97.6802 101.06C96.6573 101.35 95.4894 100.738 95.2347 99.7759C95.1406 99.4256 95.1798 99.2324 95.1211 98.6809C95.0035 98.2421 94.4705 96.2374 94.3255 95.7141C94.1178 94.9291 92.7304 90.4407 92.7069 90.3481C92.6128 89.9979 91.8486 87.494 91.7585 87.1438C91.7114 86.9707 91.3509 85.288 91.2803 85.0264C91.2607 84.9378 91.2333 84.8493 91.2333 84.8493C91.1628 84.5876 90.6141 82.8607 90.5435 82.603C90.2378 81.4678 88.921 76.2065 88.5957 74.9868L80.9104 45.6086C80.8634 45.4355 80.5067 44.7874 80.4597 44.6103C80.4597 44.6103 80.4362 44.5217 80.4127 44.4332C79.9894 42.8632 82.9052 42.1346 83.8693 41.2973L83.8654 41.3013ZM99.4712 122.073L99.4869 122.138C100.992 127.761 105.107 141.383 107.752 148.754C107.839 149.076 107.854 150.376 107.69 150.767C106.8 152.949 104.621 153.565 102.509 154.16C102.32 154.209 102.132 154.265 101.948 154.317C99.9572 154.881 98.2211 155.163 97.5391 152.607L96.3752 148.255L92.0759 133.449C91.5037 132.306 88.921 123.679 88.1686 123.615C88.0902 123.571 87.5768 123.647 87.3887 123.699C86.8713 123.776 83.497 124.935 82.8778 125.112C82.4702 125.092 81.9215 125.036 81.7687 124.464C81.5296 122.331 80.1148 119.292 79.5426 116.908C79.5074 116.78 79.4917 116.715 79.4564 116.59C79.2605 116.369 79.2252 116.24 79.1742 116.051C79.0371 115.54 80.2755 114.916 80.7575 114.71C83.983 113.249 87.8511 111.945 102.132 108.258C102.744 108.294 103.402 109.002 103.555 109.578C104.241 112.134 105.068 115.479 105.366 118.076C104.543 119.75 101.384 119.956 99.726 120.769C99.6006 120.805 99.3262 121.018 99.3262 121.018C99.3772 121.212 99.4242 121.884 99.4752 122.077L99.4712 122.073ZM37.8003 59.0136C37.8003 59.0136 37.6867 58.5788 37.6357 58.4017C37.381 57.4396 37.3222 56.8962 37.0831 55.6442C37.526 54.5815 39.3288 53.7925 40.4339 53.4785C40.5202 53.4543 40.9434 53.3376 41.0257 53.3135C41.4529 53.1927 44.6195 52.3916 45.0428 52.2708C45.129 52.2467 45.8737 51.9448 46.0383 51.8965C46.0383 51.8965 46.6927 51.6187 46.9514 51.5463C48.4798 51.1115 50.2043 50.721 51.7209 50.5721C52.1325 50.7412 52.5283 51.192 52.7869 51.4939C52.834 51.667 53.1828 52.9753 53.2298 53.1524L59.9863 78.3803C60.0098 78.4648 60.1235 78.5292 60.1235 78.5292L67.5149 76.44L67.6364 76.2146L62.5533 53.8046C62.4358 53.3658 62.1732 53.0679 62.0556 52.6291C61.6833 51.2363 62.3731 51.4134 62.7532 50.4634C63.0863 49.9924 63.537 48.2695 64.2777 47.9636C64.5325 47.8951 65.5514 47.6053 65.7239 47.557C66.1472 47.4362 67.1661 47.1504 67.2523 47.1262C69.5097 46.6754 71.8416 45.83 74.3459 45.9669C75.2551 46.2769 75.6431 47.3839 75.8783 48.2574C76.0429 48.8693 76.133 49.2195 76.0194 49.8153C76.3015 50.8619 87.3103 91.9744 86.9693 91.0365C87.3456 92.4333 88.9328 98.371 89.2816 99.6792C89.3835 100.4 88.7094 100.967 88.294 101.459C87.9138 101.752 86.7459 102.835 86.452 103.105C85.7309 103.495 82.1528 105.162 81.412 105.468C81.3297 105.492 80.2246 105.802 79.8836 105.899C79.1155 106.112 75.89 107.026 75.4432 105.371L71.3752 90.1831C71.3321 90.0059 70.7521 89.8932 70.7521 89.8932C69.7919 90.0663 65.4966 91.0928 64.4541 91.2941L64.1131 91.3907C63.0942 91.6806 63.8427 93.4397 63.9172 94.0757C64.1994 95.1224 65.4378 100.778 65.8375 102.264C65.9159 102.896 66.492 104.707 66.4254 105.476C66.0688 109.614 61.9929 110.765 58.5911 111.728C56.9765 112.182 55.4911 112.79 54.0998 111.679C52.6615 106.639 44.741 81.178 37.7964 59.0095L37.8003 59.0136ZM51.5524 133.618C50.8 130.804 50.0122 127.866 49.6321 124.947C49.4949 123.679 51.7562 123.381 52.5048 123.176C52.6772 123.059 53.9509 122.56 54.1939 122.492C54.2605 122.472 55.3814 122.158 55.8164 122.037C57.0588 121.687 59.2143 120.729 60.2646 122.154C60.2842 122.218 60.5585 123.241 60.6251 123.494C61.2091 125.672 61.5853 127.83 62.1693 130.007C63.0942 133.457 64.2503 136.778 65.0968 140.184C65.1909 140.293 65.4339 140.703 65.4535 140.768C65.5632 140.945 66.0727 142.587 66.1863 142.764C66.6723 144.069 67.848 145.457 68.0362 146.919C68.2831 147.329 69.4353 149.137 69.6783 149.551C70.176 150.167 70.7952 150.473 71.4928 150.827C71.9631 150.831 72.3707 150.855 72.7469 150.747C73.4915 150.533 73.4915 149.777 73.4406 149.104C73.4994 148.815 73.3857 147.402 73.3661 147.059C73.2799 146.741 72.7312 144.696 72.6489 144.378C72.4451 143.614 71.9278 141.693 71.8965 141.569C71.7123 141.134 69.8664 136.497 66.688 124.879C66.2961 123.41 65.865 121.807 65.72 120.27C65.8101 120.105 65.9669 119.928 66.0727 119.827C66.3196 119.758 67.4404 119.44 67.6913 119.372C68.1263 119.247 69.3099 118.917 69.4353 118.877C70.3053 118.631 74.7613 117.508 75.7098 117.307C76.0115 117.428 76.2388 117.778 76.325 118.1C77.3362 120.632 78.1788 123.285 78.9156 126.03C78.5041 124.501 85.9151 146.407 82.674 154.064C82.627 154.14 82.5799 154.708 82.5329 154.788C82.5643 154.917 82.4584 155.014 82.4584 155.014L80.6557 158.275C80.6086 158.355 80.35 158.637 80.2285 158.673C78.4218 159.941 76.6229 160.726 74.632 161.286C69.0316 162.868 65.622 162.389 61.5853 158.303C61.0171 157.703 60.9152 157.047 60.4566 156.35C60.4409 156.286 60.1313 155.891 60.1313 155.891C59.422 154.99 59.0653 153.919 58.6891 152.997C57.9366 150.94 56.9373 148.951 56.2475 146.878C55.3539 144.036 54.335 141.226 53.3121 138.421C52.6811 136.811 52.0031 135.285 51.5563 133.618H51.5524ZM95.5012 207.909C95.2269 208.122 94.3725 208.911 94.1569 209.109C93.6318 209.394 91.0334 210.606 90.4926 210.827C90.426 210.848 89.6225 211.073 89.3796 211.141C88.8191 211.298 86.4677 211.963 86.1463 210.759L83.1835 199.697C83.1482 199.568 82.7249 199.48 82.7249 199.48C82.0313 199.608 78.896 200.357 78.1396 200.502L77.8927 200.571C77.1481 200.78 77.6928 202.064 77.7477 202.527C77.9515 203.292 78.8568 207.41 79.1468 208.493C79.2017 208.952 79.621 210.268 79.574 210.832C79.3153 213.847 76.3407 214.692 73.8678 215.384C72.692 215.718 71.6143 216.157 70.5992 215.348C69.5489 211.681 63.7839 193.135 58.7283 176.989C58.7283 176.989 58.6421 176.671 58.6107 176.542C58.4226 175.842 58.3834 175.443 58.2071 174.534C58.5323 173.757 59.8452 173.185 60.6487 172.956C60.7114 172.939 61.021 172.851 61.0798 172.831C61.3894 172.742 63.6977 172.162 64.0073 172.074C64.07 172.054 64.6109 171.836 64.7284 171.8C64.7284 171.8 65.2105 171.595 65.3947 171.543C66.5116 171.229 67.7657 170.943 68.867 170.838C69.1649 170.955 69.4549 171.289 69.6469 171.506C69.6822 171.635 69.9369 172.589 69.9722 172.714L74.8907 191.086C74.9103 191.147 74.9886 191.191 74.9886 191.191L80.3735 189.669L80.4636 189.508L76.7562 173.185C76.6738 172.867 76.4779 172.646 76.3917 172.328C76.1173 171.309 76.6229 171.442 76.9051 170.75C77.1441 170.407 77.4733 169.151 78.0103 168.926C78.1945 168.874 78.9391 168.664 79.0645 168.628C79.3741 168.54 80.1187 168.334 80.1775 168.314C81.8196 167.988 83.5205 167.372 85.3429 167.473C86.0013 167.698 86.2874 168.507 86.4559 169.143C86.5735 169.586 86.644 169.84 86.5578 170.275C86.7616 171.039 94.784 200.981 94.5293 200.301C94.8036 201.315 95.9597 205.639 96.2184 206.593C96.2968 207.12 95.803 207.531 95.5012 207.889V207.909ZM123.703 201.376L106.247 207.06C105.805 207.39 104.923 207.571 104.55 207.68C104.304 207.748 103.422 207.929 103.234 207.981C102.924 208.07 102.528 207.837 102.32 207.555C100.243 200.55 92.5658 178.1 90.4534 168.713C90.277 168.56 90.2261 168.366 90.1751 168.177C89.5442 165.826 106.247 161.314 105.84 161.29C107.447 160.835 110.856 159.873 111.503 162.288C111.624 162.731 111.597 163.149 111.703 163.532C112.008 164.675 112.769 165.758 113.09 166.966C113.466 168.366 113.106 169.49 112.632 170.721C112.416 171.402 111.812 171.635 111.334 171.84L111.272 171.857C108.595 173.298 105.703 174.183 102.822 174.86L102.665 175.041C102.665 175.041 102.802 175.548 102.838 175.677C103.398 177.774 104.174 179.67 104.66 181.727L104.801 181.755C104.86 181.739 105.127 181.731 105.193 181.715C106.306 181.401 107.364 180.624 108.473 180.306C109.708 179.956 110.774 180.201 111.409 181.325C111.609 181.816 112.373 183.925 112.49 184.368C112.506 184.428 112.839 185.431 112.941 185.813C113.008 186.067 113.219 187.097 113.27 187.29C113.396 188.76 113.169 189.641 111.777 190.173C111.221 190.33 108.47 191.247 107.976 191.384L107.799 191.71C107.901 192.089 108.665 194.947 108.767 195.333L120.442 191.694C120.752 191.606 121.152 192.109 121.285 192.346C122.128 194.504 124.216 199.319 123.703 201.376V201.376ZM113.462 135.591C113.462 135.591 113.376 135.269 113.341 135.144C113.325 135.08 113.239 134.762 113.239 134.762L113.329 134.596L122.19 132.439C122.316 132.403 122.547 132.27 122.582 132.399C122.614 132.523 122.668 132.717 122.719 132.91C123.28 134.745 123.292 139.282 127.477 137.41C128.625 136.951 128.625 134.955 128.371 133.997C127.563 130.994 123.68 130.229 121.089 129.311C120.928 129.218 120.85 129.174 120.689 129.082C115.653 127.274 110.739 125.43 109.249 119.867C109.234 119.807 109.245 119.593 109.245 119.593C109.469 119.187 109.39 119.143 109.057 118.889C108.959 118.78 108.56 117.79 108.528 117.661C108.509 117.597 108.317 117.379 108.317 117.379C108.317 117.379 108.266 117.186 108.25 117.122C106.283 109.767 112.722 104.578 119.494 102.598C131.49 99.1358 134.077 110.786 134.829 117.11C134.861 117.238 134.018 117.335 133.83 117.387C133.579 117.46 132.897 117.653 132.897 117.653C131.631 117.943 127.665 119.13 126.388 119.356C125.831 119.517 125.71 119.066 125.557 118.764C125.546 118.721 125.536 118.678 125.525 118.635C125.388 118.124 124.773 115.822 124.62 115.246C124.181 113.857 122.809 111.977 120.877 112.521C116.21 113.841 121.732 119.706 124.683 120.733C125.267 120.91 125.851 121.091 126.372 121.284C133.266 123.534 140.763 126.022 137.969 137.338C137.581 138.892 137.267 140.216 136.315 141.657C134.539 144.286 131.835 145.675 128.719 146.552C120.689 148.819 116.966 146.158 113.466 135.595L113.462 135.591ZM158.65 184.867C158.591 185.157 157.968 187.045 157.834 187.286C157.807 187.431 157.689 188.49 157.646 188.57C157.599 188.651 157.09 189.48 157.062 189.625C157.019 189.706 156.953 190.205 156.953 190.205C156.89 190.221 156.588 190.583 156.478 190.68C155.902 191.255 155.189 192.073 154.515 192.536C152.508 193.993 151.047 194.75 148.754 195.398C146.34 196.078 143.839 196.44 141.421 196.851C140.171 197.137 138.701 197.145 138.31 195.68C138.208 195.301 138.31 194.927 138.223 194.609C138.208 194.544 138.188 194.484 138.188 194.484C137.565 193.152 137.181 191.964 136.789 190.499C135.938 187.323 135.194 184.046 134.343 180.866C134.292 180.676 134.206 180.358 134.206 180.358C134.171 180.23 133.532 178.841 133.481 178.648C133.246 178.032 132.419 175.19 132.247 174.55C132.231 174.485 131.968 174.014 131.937 173.889L131.917 173.825C131.902 173.761 131.867 173.636 131.867 173.636C131.847 173.571 131.839 173.028 131.804 172.903L131.788 172.839C131.239 170.806 130.385 167.352 129.405 165.44C129.319 165.126 128.892 163.532 128.794 163.149C128.657 162.646 128.214 160.992 128.179 160.863C127.994 160.162 127.328 156.93 127.215 156.278C126.866 155.211 128.386 153.689 129.315 153.428L140.332 150.312C140.457 150.276 141.233 150.195 141.437 150.207C144.639 149.982 147.719 149.797 150.165 151.979C151.486 153.174 152.293 154.45 152.755 156.169C152.806 156.358 152.94 156.87 152.94 156.87C152.896 156.95 152.904 157.977 152.924 158.037C153.112 159.49 153.429 160.424 152.932 161.793C152.869 161.813 152.555 162.381 152.508 162.465C152.544 162.594 152.826 163.403 152.798 163.544C152.814 163.608 152.787 163.753 152.763 163.898C152.132 166.265 150.839 167.658 149.479 169.546C149.436 169.626 149.299 169.872 149.299 169.872C149.314 170.415 152.214 170.822 152.99 171.225C155.307 172.412 157.689 174.34 158.418 177.074C158.947 179.046 159.206 183.007 158.642 184.875L158.65 184.867ZM150.032 104.691C149.404 102.598 148.636 100.476 148.052 98.3025C148.017 98.1777 147.762 97.2196 147.711 97.0264C147.472 96.1328 149.346 95.8751 149.702 95.7061C149.828 95.6698 150.862 95.0378 151.329 94.7681C151.391 94.748 151.623 94.6151 151.681 94.599C153.081 94.0677 153.935 93.7577 155.119 93.4236C161.279 91.6806 168.867 91.2579 173.534 96.1972C175.898 98.7654 177.536 102.63 178.41 105.891C178.512 106.277 178.786 107.3 178.786 107.3C178.904 108.229 179.401 112.352 179.437 113.233C179.437 114.473 179.429 116.196 179.55 117.4C179.566 117.464 179.652 118.265 179.621 118.414C179.593 118.559 178.97 119.493 178.943 119.634C178.48 120.66 178.864 121.099 178.712 122.033C178.668 122.117 178.288 122.705 178.261 122.85C178.28 122.914 178.512 123.534 178.469 123.615C178.5 123.744 178.065 124.348 178.037 124.496C177.665 126.115 176.834 127.512 175.909 128.812C173.37 132.829 167.762 135.651 163.282 136.919C162.475 137.149 159.571 137.551 159.19 136.146C159.175 136.086 159.124 135.893 159.124 135.893C159.073 135.699 158.701 133.812 158.65 133.618C158.65 133.618 158.634 133.554 158.618 133.489C157.693 130.036 156.855 127.657 155.992 124.191C155.702 123.86 155.601 123.478 155.479 123.027C155.205 122.005 155.138 120.994 154.86 119.972C154.519 118.692 153.943 117.548 153.586 116.208C153.335 115.52 153.222 114.59 152.783 113.954C152.516 113.205 151.474 110.061 151.266 109.296C151.129 108.785 150.169 105.202 150.032 104.691V104.691ZM186.734 176.655C186.487 177.476 186.322 178.346 186.009 179.179C184.112 182.794 180.879 185.141 176.862 186.28C173.025 187.367 168.855 186.972 165.794 184.485C165.473 184.03 164.109 182.432 163.807 182.041C162.377 180.185 161.859 178.008 161.036 175.914L158.395 166.06C157.834 163.963 157.427 160.452 157.423 158.198C157.435 157.989 157.478 155.171 157.517 154.068C157.721 147.856 163.619 144.548 169.008 143.026C169.067 143.01 169.972 142.893 170.031 142.877L170.093 142.857C179.825 141.408 188.125 155.746 186.734 176.655V176.655Z" fill="#C1EE88"/>
<path d="M34.8727 152.289C36.5697 159.378 38.4156 162.022 39.9793 161.853C40.0381 161.833 40.1635 161.801 40.2262 161.781C40.8533 161.604 41.4607 160.126 41.4999 159.772C42.0172 155.706 41.0061 149.181 39.9793 145.349C39.9793 145.349 39.9636 145.28 39.944 145.22C39.752 144.242 38.1413 136.992 36.1935 137.475C36.0798 137.302 36.0171 137.318 35.8917 137.354C34.5866 137.72 32.5879 138.771 32.8857 143.36C32.9367 144.306 33.454 146.983 33.4658 147.047C33.5206 147.241 33.9988 149.028 34.1673 149.668C34.2731 150.054 34.7512 151.846 34.8727 152.289Z" fill="#C1EE88"/>
<path d="M183.238 30.5009C182.685 32.5297 182.348 34.6914 181.737 36.837L181.674 36.9498C180.828 38.2218 180.636 39.2161 179.789 40.4882C178.743 42.3761 177.446 43.6844 176.329 45.3107L176.352 45.3993L176.376 45.4879C176.399 45.5724 176.509 45.6368 176.591 45.6126C180.165 45.5563 183.312 47.1423 186.032 49.6059C185.131 42.1024 184.312 34.5868 183.595 27.0671C183.426 28.1621 183.571 29.3295 183.242 30.4969L183.238 30.5009Z" fill="#C1EE88"/>
<path d="M189.278 74.7051C189.278 74.7051 189.309 74.6971 189.313 74.693C190.418 74.379 195.666 72.8091 196.767 72.4991C196.809 72.4213 196.851 72.3462 196.892 72.2737C197.496 71.4485 197.355 70.9211 197.073 69.8745C195.376 63.5303 191.625 54.6782 186.029 49.6061C187.036 57.9791 188.125 66.3441 189.278 74.7051V74.7051Z" fill="#C1EE88"/>
<path d="M193.823 82.7561C193.941 82.7642 192.538 83.1708 190.539 83.7987C191.115 87.8725 191.695 91.9504 192.283 96.0242C194.678 95.3922 197.053 94.5831 199.279 93.3875L199.342 93.3674C199.824 93.1661 200.427 92.9246 200.651 92.2442C201.125 91.0124 201.489 89.8732 201.113 88.4683C200.788 87.2526 200.027 86.1617 199.718 85.0144C199.616 84.628 199.636 84.2093 199.518 83.7625C198.871 81.3351 195.446 82.3012 193.827 82.7601L193.823 82.7561Z" fill="#C1EE88"/>
<path d="M195.787 113.354L195.967 113.028C196.465 112.887 199.236 111.969 199.792 111.812C201.195 111.277 201.419 110.391 201.289 108.91C201.242 108.721 201.031 107.678 200.96 107.424C200.858 107.042 200.521 106.032 200.502 105.971C200.38 105.52 199.616 103.403 199.416 102.908C198.781 101.781 197.711 101.535 196.461 101.885C195.395 102.187 194.38 102.896 193.318 103.238C194.506 111.47 195.689 119.702 196.83 127.942L211.777 123.071C212.294 121.002 210.194 116.16 209.343 113.99C209.214 113.752 208.81 113.249 208.497 113.338L196.759 116.997C196.657 116.611 195.885 113.736 195.779 113.35L195.787 113.354Z" fill="#C1EE88"/>
<path d="M183.661 26.6204C183.614 26.4433 183.849 25.6261 183.936 25.606C184.034 24.2655 183.501 23.2873 183.536 22.0595C183.677 18.8271 183.614 16.8747 182.705 13.8435C182.65 13.296 182.905 13.2235 182.791 12.7848C182.713 12.4949 182.552 12.2413 182.317 12.0924C182.689 17.088 183.113 22.0797 183.595 27.0673C183.618 26.9183 183.626 26.7653 183.665 26.6204H183.661Z" fill="#C1EE88"/>
<path d="M219.592 164.909C216.331 161.93 212.69 159.269 209.747 155.996C209.731 155.932 209.665 155.678 209.645 155.618C209.508 155.111 209.571 155.091 209.771 154.35C209.927 152.941 215.34 136.364 214.936 132.858C214.901 132.729 214.912 132.519 214.724 132.572C214.109 132.749 211.138 133.586 210.519 133.759C208.599 134.303 205.922 134.987 203.931 135.756L200.898 148.791L199.456 147.474C200.8 158.017 202.011 168.576 203.018 179.151C205.33 176.671 205.291 170.251 206.302 169.965L206.365 169.949C206.447 169.993 206.776 170.243 206.855 170.287L212.385 175.017C212.726 175.536 213.247 176.003 213.866 175.83L222.347 173.431C223.954 172.976 225.102 171.559 224.597 169.651C224.271 168.443 220.799 165.661 219.596 164.909H219.592Z" fill="#C1EE88"/>
<path d="M35.4214 192.125C35.6605 192.057 36.3111 191.843 37.0439 191.602C36.5854 187.999 36.1465 184.392 35.7232 180.781C34.814 181.123 34.0419 181.449 33.3129 181.779C32.8348 181.981 31.6042 182.605 31.7414 183.112C31.7923 183.301 31.8276 183.43 32.0196 183.647C32.051 183.772 32.0706 183.837 32.1019 183.965C32.6702 186.336 34.0772 189.359 34.3123 191.481C34.4612 192.053 35.0099 192.101 35.4175 192.125H35.4214Z" fill="#C1EE88"/>
<path d="M24.2324 111.39L25.8236 117.327C26.431 119.59 27.6459 120.213 29.1587 120.169C26.9092 99.8887 24.6165 79.568 22.8059 59.215C10.7194 62.4596 6.51416 63.949 2.91251 65.5793C2.25802 65.8611 0.56497 66.7105 0.753087 67.4109C0.823631 67.6726 0.870658 67.8457 1.13324 68.1476C1.18027 68.3207 1.20378 68.4093 1.25081 68.5824C2.03071 71.835 3.96283 75.9853 4.28419 78.8957C4.49582 79.6807 5.24437 79.7531 5.80481 79.7813C6.65133 79.5398 11.2563 77.9578 11.9617 77.8571C12.2204 77.7847 12.9219 77.68 13.0277 77.7404C14.0584 77.8249 17.5739 89.6035 18.3616 91.1654L24.2324 111.382V111.39Z" fill="#C1EE88"/>
<path d="M34.6338 171.285C33.0623 157.152 31.6475 142.998 30.119 128.892C25.9687 130.748 22.3435 133.828 22.1907 138.682C22.1515 139.79 22.1084 142.623 22.0966 142.833C22.1045 145.099 22.5121 148.63 23.0764 150.739L25.7296 160.65C26.5605 162.755 27.0817 164.945 28.5161 166.809C28.8218 167.203 30.1935 168.813 30.5149 169.268C31.7415 170.267 33.1485 170.915 34.6338 171.281V171.285Z" fill="#C1EE88"/>
<path d="M32.9098 19.5435C46.4033 18.5291 60.0182 14.5156 73.3902 12.3298C90.8184 9.48376 108.407 7.75682 125.812 4.79807C126.031 4.76184 125.981 4.39149 125.757 4.39954C108.67 5.0557 91.5983 7.74474 74.7266 10.4942C61.0332 12.7283 45.9526 14.4955 32.8824 19.3905C32.8079 19.4187 32.8118 19.5515 32.902 19.5435H32.9098Z" fill="#C1EE88"/>
<path d="M128.117 4.81824C129.163 5.26105 130.656 5.08795 131.53 4.33518C131.679 4.20637 131.542 4.00509 131.389 3.98899C130.409 3.88433 129.03 4.00107 128.117 4.39154C127.913 4.4801 127.909 4.73371 128.117 4.81824V4.81824Z" fill="#C1EE88"/>
<path d="M129.382 225.645C139.309 225.412 149.389 223.637 159.234 222.349C170.145 220.923 181.122 219.607 191.759 216.669C192.037 216.592 191.99 216.109 191.688 216.137C181.416 217.083 171.258 218.955 161.041 220.396C150.545 221.878 139.611 222.618 129.343 225.344C129.178 225.388 129.214 225.649 129.382 225.645V225.645Z" fill="#C1EE88"/>
<path d="M19.5414 151.999C19.1965 159.261 23.8681 169.079 29.9936 172.827C30.1621 172.931 30.4051 172.714 30.2758 172.537C28.0811 169.502 25.7414 166.639 23.9229 163.33C21.9556 159.752 21.0189 155.823 19.7452 151.974C19.706 151.858 19.5492 151.882 19.5414 152.003V151.999Z" fill="#C1EE88"/>
<path d="M191.59 50.1133C194.91 53.9818 197.308 57.0734 199.017 62.0489C200.483 66.32 201.27 70.8688 202.336 75.2607C202.395 75.4982 202.74 75.4418 202.744 75.2043C202.873 67.737 200.204 52.271 191.719 49.8879C191.586 49.8517 191.508 50.0167 191.59 50.1133V50.1133Z" fill="#C1EE88"/>
</g>
</svg>
