<svg width="10" height="10" viewBox="0 0 10 10" fill="none" xmlns="http://www.w3.org/2000/svg">
<path d="M6.58511 6.59764L5.53511 9.44686C5.50403 9.53059 5.44807 9.6028 5.37475 9.65379C5.30143 9.70478 5.21426 9.73212 5.12495 9.73212C5.03565 9.73212 4.94847 9.70478 4.87515 9.65379C4.80183 9.6028 4.74588 9.53059 4.7148 9.44686L3.6648 6.59764C3.64264 6.5375 3.60769 6.48289 3.56237 6.43757C3.51705 6.39225 3.46244 6.3573 3.4023 6.33514L0.553079 5.28514C0.469351 5.25406 0.397141 5.1981 0.346148 5.12478C0.295155 5.05146 0.267822 4.96429 0.267822 4.87498C0.267822 4.78568 0.295155 4.69851 0.346148 4.62519C0.397141 4.55186 0.469351 4.49591 0.553079 4.46483L3.4023 3.41483C3.46244 3.39267 3.51705 3.35772 3.56237 3.3124C3.60769 3.26708 3.64264 3.21247 3.6648 3.15233L4.7148 0.303109C4.74588 0.219382 4.80183 0.147171 4.87515 0.0961782C4.94847 0.0451852 5.03565 0.0178528 5.12495 0.0178528C5.21426 0.0178528 5.30143 0.0451852 5.37475 0.0961782C5.44807 0.147171 5.50403 0.219382 5.53511 0.303109L6.58511 3.15233C6.60727 3.21247 6.64222 3.26708 6.68754 3.3124C6.73286 3.35772 6.78747 3.39267 6.84761 3.41483L9.69683 4.46483C9.78056 4.49591 9.85277 4.55186 9.90376 4.62519C9.95475 4.69851 9.98209 4.78568 9.98209 4.87498C9.98209 4.96429 9.95475 5.05146 9.90376 5.12478C9.85277 5.1981 9.78056 5.25406 9.69683 5.28514L6.84761 6.33514C6.78747 6.3573 6.73286 6.39225 6.68754 6.43757C6.64222 6.48289 6.60727 6.5375 6.58511 6.59764V6.59764Z" fill="#1A906B"/>
</svg>
