<svg width="58" height="52" viewBox="0 0 58 52" fill="none" xmlns="http://www.w3.org/2000/svg">
<path d="M27.0386 51.0874C25.8886 51.0874 24.7387 51.0547 23.622 50.9928C21.1479 50.8538 19.0844 50.6774 17.128 50.4391L17.1025 50.4356H17.0776C12.6233 50.2873 7.98768 49.1858 4.35935 47.4104C3.63521 47.0553 1.93756 46.2248 1.24631 45.149L1.18738 45.0567L1.11308 44.9808C0.312773 44.1608 0.809459 41.8153 2.37959 39.0026L2.38846 38.9875L2.39638 38.9723C2.44511 38.8718 2.49348 38.7749 2.53979 38.6826C3.66024 36.4481 5.10514 34.5033 6.83548 32.8995L6.85618 32.8808L6.87457 32.8598C8.59526 30.8998 10.3774 29.2914 12.1703 28.0789L12.592 27.7939L12.3748 27.1655C11.2536 23.9195 11.0792 20.3873 10.9115 16.9719C10.8923 16.5771 10.8728 16.1858 10.852 15.798C10.647 11.927 11.1361 8.90874 12.3485 6.56911C14.4657 2.48207 18.4047 0.0419931 22.8843 0.0419931C23.5559 0.0419931 24.2391 0.0980663 24.9145 0.209032C30.2202 1.07924 35.149 5.15227 38.4353 11.3839C40.777 15.8237 41.9778 21.2283 42.1052 27.9061L42.1179 28.5917L42.6953 28.8335C45.1051 29.8439 47.722 31.6626 50.9305 34.557C52.6724 36.128 55.9147 39.0517 56.8915 42.2206C57.1489 43.0546 57.1449 43.7601 56.8787 44.3757C56.3432 45.6174 54.7002 46.5331 52.2544 46.9536L52.2098 46.9618L52.1675 46.977C48.4853 48.3132 44.5627 49.2757 40.5092 49.8387L40.4933 49.8411C35.5781 50.6786 31.1764 51.0862 27.0384 51.0862L27.0386 51.0874Z" fill="white"/>
</svg>
