<svg width="26" height="26" viewBox="0 0 26 26" fill="none" xmlns="http://www.w3.org/2000/svg">
<path d="M16.5046 17.6795L13.8046 25.006C13.7247 25.2213 13.5808 25.407 13.3923 25.5381C13.2038 25.6693 12.9796 25.7395 12.75 25.7395C12.5203 25.7395 12.2962 25.6693 12.1076 25.5381C11.9191 25.407 11.7752 25.2213 11.6953 25.006L8.99527 17.6795C8.93829 17.5248 8.84843 17.3844 8.73189 17.2678C8.61536 17.1513 8.47492 17.0614 8.32027 17.0045L0.99371 14.3045C0.77841 14.2245 0.592726 14.0807 0.461601 13.8921C0.330476 13.7036 0.260193 13.4794 0.260193 13.2498C0.260193 13.0201 0.330476 12.796 0.461601 12.6074C0.592726 12.4189 0.77841 12.275 0.99371 12.1951L8.32027 9.49509C8.47492 9.43811 8.61536 9.34825 8.73189 9.23171C8.84843 9.11517 8.93829 8.97473 8.99527 8.82009L11.6953 1.49353C11.7752 1.27823 11.9191 1.09254 12.1076 0.961418C12.2962 0.830293 12.5203 0.76001 12.75 0.76001C12.9796 0.76001 13.2038 0.830293 13.3923 0.961418C13.5808 1.09254 13.7247 1.27823 13.8046 1.49353L16.5046 8.82009C16.5616 8.97473 16.6515 9.11517 16.768 9.23171C16.8846 9.34825 17.025 9.43811 17.1796 9.49509L24.5062 12.1951C24.7215 12.275 24.9072 12.4189 25.0383 12.6074C25.1694 12.796 25.2397 13.0201 25.2397 13.2498C25.2397 13.4794 25.1694 13.7036 25.0383 13.8921C24.9072 14.0807 24.7215 14.2245 24.5062 14.3045L17.1796 17.0045C17.025 17.0614 16.8846 17.1513 16.768 17.2678C16.6515 17.3844 16.5616 17.5248 16.5046 17.6795V17.6795Z" fill="#1A906B"/>
</svg>
