<svg width="26" height="26" viewBox="0 0 26 26" fill="none" xmlns="http://www.w3.org/2000/svg">
<path d="M16.5045 17.6795L13.8045 25.006C13.7245 25.2213 13.5807 25.407 13.3921 25.5381C13.2036 25.6693 12.9794 25.7395 12.7498 25.7395C12.5201 25.7395 12.296 25.6693 12.1074 25.5381C11.9189 25.407 11.775 25.2213 11.6951 25.006L8.99509 17.6795C8.93811 17.5248 8.84825 17.3844 8.73171 17.2678C8.61517 17.1513 8.47473 17.0614 8.32009 17.0045L0.993526 14.3045C0.778227 14.2245 0.592543 14.0807 0.461418 13.8921C0.330293 13.7036 0.26001 13.4794 0.26001 13.2498C0.26001 13.0201 0.330293 12.796 0.461418 12.6074C0.592543 12.4189 0.778227 12.275 0.993526 12.1951L8.32009 9.49509C8.47473 9.43811 8.61517 9.34825 8.73171 9.23171C8.84825 9.11517 8.93811 8.97473 8.99509 8.82009L11.6951 1.49353C11.775 1.27823 11.9189 1.09254 12.1074 0.961418C12.296 0.830293 12.5201 0.76001 12.7498 0.76001C12.9794 0.76001 13.2036 0.830293 13.3921 0.961418C13.5807 1.09254 13.7245 1.27823 13.8045 1.49353L16.5045 8.82009C16.5614 8.97473 16.6513 9.11517 16.7678 9.23171C16.8844 9.34825 17.0248 9.43811 17.1795 9.49509L24.506 12.1951C24.7213 12.275 24.907 12.4189 25.0381 12.6074C25.1693 12.796 25.2395 13.0201 25.2395 13.2498C25.2395 13.4794 25.1693 13.7036 25.0381 13.8921C24.907 14.0807 24.7213 14.2245 24.506 14.3045L17.1795 17.0045C17.0248 17.0614 16.8844 17.1513 16.7678 17.2678C16.6513 17.3844 16.5614 17.5248 16.5045 17.6795V17.6795Z" fill="#1A906B"/>
</svg>
