<svg width="5" height="6" viewBox="0 0 5 6" fill="none" xmlns="http://www.w3.org/2000/svg">
<path d="M0.68572 1.05457L1.31371 1.8683C0.916769 2.19947 0.592352 2.65754 0.371725 3.19836L0.335116 3.28411L0.371725 3.37169C0.846237 4.50836 1.67839 5.1962 2.59926 5.1962C2.95868 5.1961 3.31344 5.0907 3.63699 4.88786L4.34101 5.80011L4.58742 5.52644L0.926496 0.782714L0.68572 1.05457ZM2.05857 2.83346L2.99492 4.04676C2.88912 4.13161 2.76733 4.17707 2.64291 4.17812C2.5525 4.17813 2.46299 4.15496 2.37951 4.10997C2.29604 4.06497 2.22026 3.99903 2.15653 3.91595C2.0928 3.83286 2.04238 3.73426 2.00817 3.62582C1.97396 3.51739 1.95663 3.40126 1.95719 3.28411C1.95877 3.12476 1.99382 2.96896 2.05857 2.83346V2.83346ZM1.8544 2.56891C1.72267 2.80963 1.66092 3.103 1.6801 3.39705C1.69928 3.6911 1.79814 3.96688 1.95917 4.17555C2.12021 4.38422 2.33304 4.51232 2.55997 4.53717C2.78691 4.56201 3.01331 4.48201 3.19909 4.31131L3.42437 4.60323C3.16357 4.74769 2.88289 4.82217 2.59926 4.82218C1.80653 4.82218 1.08561 4.24928 0.656151 3.28411C0.862248 2.81124 1.15907 2.41532 1.51788 2.13467L1.8544 2.56891Z" fill="#C7D2D6"/>
</svg>
