<svg width="107" height="81" viewBox="0 0 107 81" fill="none" xmlns="http://www.w3.org/2000/svg">
<path d="M47.389 80.9176C45.2296 80.9176 43.0809 80.8661 41.0041 80.7688C36.4032 80.5501 32.5856 80.2727 28.9889 79.8979L28.9422 79.8924H28.8955C20.5794 79.659 12.2309 77.9264 5.99152 75.1337C4.74653 74.5751 1.82715 73.2687 0.876783 71.5765L0.795948 71.4314L0.680967 71.312C-0.556843 70.0222 1.13369 66.3327 4.99084 61.9084L5.0124 61.8846L5.03216 61.8607C5.15612 61.7027 5.27829 61.5501 5.39506 61.405C8.22101 57.8902 11.5626 54.831 15.3299 52.3083L15.3748 52.2789L15.4161 52.2459C19.2805 49.1628 23.1466 46.6328 26.9049 44.7256L27.7888 44.2773L27.584 43.2888C26.5277 38.1829 27.3415 32.6267 28.1302 27.2543C28.2218 26.6333 28.3116 26.0178 28.3979 25.4078C29.2638 19.3189 31.1573 14.5712 34.1899 10.891C39.4861 4.4621 47.671 0.623892 56.0824 0.623892C57.3436 0.623892 58.6083 0.712094 59.8408 0.886642C69.5223 2.25546 77.4611 8.66228 81.6183 18.4645C84.5808 25.4482 85.0892 33.9496 83.1705 44.4537L82.9729 45.5322L83.979 45.9125C88.1774 47.5018 92.5035 50.3626 97.5931 54.9155C100.356 57.3867 105.5 61.9856 106.31 66.9703C106.524 68.2822 106.288 69.3919 105.589 70.3602C104.183 72.3133 100.802 73.7538 96.0732 74.4152L95.987 74.4281L95.9025 74.452C88.5565 76.5539 80.8799 78.0679 73.0866 78.9534L73.056 78.9571C63.556 80.2745 55.159 80.9158 47.389 80.9158V80.9176Z" fill="white"/>
</svg>
