<svg width="15" height="15" viewBox="0 0 15 15" fill="none" xmlns="http://www.w3.org/2000/svg">
<path d="M9.61967 9.94076L8.06721 14.21C8.02918 14.3125 7.96071 14.4008 7.87099 14.4632C7.78128 14.5256 7.67462 14.5591 7.56534 14.5591C7.45606 14.5591 7.34939 14.5256 7.25968 14.4632C7.16996 14.4008 7.10149 14.3125 7.06346 14.21L5.511 9.94076C5.48389 9.86717 5.44113 9.80034 5.38567 9.74489C5.33022 9.68944 5.26339 9.64667 5.1898 9.61956L0.920538 8.0671C0.818088 8.02907 0.72973 7.9606 0.667334 7.87089C0.604938 7.78117 0.571494 7.67451 0.571494 7.56523C0.571494 7.45595 0.604938 7.34928 0.667334 7.25957C0.72973 7.16985 0.818088 7.10138 0.920538 7.06335L5.1898 5.51089C5.26339 5.48378 5.33022 5.44102 5.38567 5.38557C5.44113 5.33011 5.48389 5.26328 5.511 5.1897L7.06346 0.92043C7.10149 0.81798 7.16996 0.729622 7.25968 0.667226C7.34939 0.604831 7.45606 0.571386 7.56534 0.571386C7.67462 0.571386 7.78128 0.604831 7.87099 0.667226C7.96071 0.729622 8.02918 0.81798 8.06721 0.92043L9.61967 5.1897C9.64678 5.26328 9.68954 5.33011 9.745 5.38557C9.80045 5.44102 9.86728 5.48378 9.94087 5.51089L14.2101 7.06335C14.3126 7.10138 14.4009 7.16985 14.4633 7.25957C14.5257 7.34928 14.5592 7.45595 14.5592 7.56523C14.5592 7.67451 14.5257 7.78117 14.4633 7.87089C14.4009 7.9606 14.3126 8.02907 14.2101 8.0671L9.94087 9.61956C9.86728 9.64667 9.80045 9.68944 9.745 9.74489C9.68954 9.80034 9.64678 9.86717 9.61967 9.94076V9.94076Z" fill="#FFC27A"/>
</svg>
