<svg width="14" height="14" viewBox="0 0 14 14" fill="none" xmlns="http://www.w3.org/2000/svg">
<path d="M1.16444 1.56889L3.14667 3.55111C1.89374 4.35783 0.869734 5.47367 0.173333 6.79111L0.0577779 7L0.173333 7.21333C1.67111 9.98222 4.29778 11.6578 7.20444 11.6578C8.33896 11.6575 9.45873 11.4008 10.48 10.9067L12.7022 13.1289L13.48 12.4622L1.92444 0.906667L1.16444 1.56889ZM5.49778 5.90222L8.45333 8.85778C8.11939 9.06448 7.73495 9.1752 7.34222 9.17778C7.05686 9.17778 6.77431 9.12136 6.51083 9.01175C6.24736 8.90215 6.00816 8.74152 5.80699 8.53912C5.60583 8.33672 5.44668 8.09653 5.33869 7.83239C5.23071 7.56825 5.17602 7.28536 5.17778 7C5.18278 6.61181 5.29341 6.2323 5.49778 5.90222V5.90222ZM4.85333 5.25778C4.43753 5.84418 4.24263 6.5588 4.30316 7.2751C4.36369 7.99141 4.67574 8.6632 5.18405 9.17151C5.69236 9.67982 6.36414 9.99186 7.08045 10.0524C7.79676 10.1129 8.51138 9.91803 9.09778 9.50222L9.80889 10.2133C8.98568 10.5652 8.0997 10.7466 7.20444 10.7467C4.70222 10.7467 2.42667 9.35111 1.07111 7C1.72165 5.8481 2.65854 4.88364 3.79111 4.2L4.85333 5.25778Z" fill="#C7D2D6"/>
</svg>
