<svg width="15" height="15" viewBox="0 0 15 15" fill="none" xmlns="http://www.w3.org/2000/svg">
<path d="M9.61977 9.94091L8.06731 14.2102C8.02928 14.3126 7.96081 14.401 7.87109 14.4634C7.78138 14.5258 7.67471 14.5592 7.56543 14.5592C7.45615 14.5592 7.34949 14.5258 7.25978 14.4634C7.17006 14.401 7.10159 14.3126 7.06356 14.2102L5.5111 9.94091C5.48399 9.86733 5.44123 9.8005 5.38577 9.74504C5.33032 9.68959 5.26349 9.64683 5.1899 9.61971L0.920636 8.06725C0.818186 8.02923 0.729828 7.96076 0.667432 7.87104C0.605037 7.78132 0.571592 7.67466 0.571592 7.56538C0.571592 7.4561 0.605037 7.34944 0.667432 7.25972C0.729828 7.17001 0.818186 7.10154 0.920636 7.06351L5.1899 5.51105C5.26349 5.48393 5.33032 5.44117 5.38577 5.38572C5.44123 5.33027 5.48399 5.26344 5.5111 5.18985L7.06356 0.920584C7.10159 0.818134 7.17006 0.729776 7.25978 0.667381C7.34949 0.604985 7.45615 0.57154 7.56543 0.57154C7.67471 0.57154 7.78138 0.604985 7.87109 0.667381C7.96081 0.729776 8.02928 0.818134 8.06731 0.920584L9.61977 5.18985C9.64688 5.26344 9.68964 5.33027 9.7451 5.38572C9.80055 5.44117 9.86738 5.48393 9.94097 5.51105L14.2102 7.06351C14.3127 7.10154 14.401 7.17001 14.4634 7.25972C14.5258 7.34944 14.5593 7.4561 14.5593 7.56538C14.5593 7.67466 14.5258 7.78132 14.4634 7.87104C14.401 7.96076 14.3127 8.02923 14.2102 8.06725L9.94097 9.61971C9.86738 9.64683 9.80055 9.68959 9.7451 9.74504C9.68964 9.8005 9.64688 9.86733 9.61977 9.94091V9.94091Z" fill="#FFC27A"/>
</svg>
