<svg width="15" height="15" viewBox="0 0 15 15" fill="none" xmlns="http://www.w3.org/2000/svg">
<path d="M9.61954 9.94073L8.06708 14.21C8.02905 14.3124 7.96058 14.4008 7.87087 14.4632C7.78115 14.5256 7.67449 14.559 7.56521 14.559C7.45593 14.559 7.34927 14.5256 7.25955 14.4632C7.16983 14.4008 7.10136 14.3124 7.06334 14.21L5.51088 9.94073C5.48376 9.86714 5.441 9.80032 5.38555 9.74486C5.33009 9.68941 5.26326 9.64665 5.18968 9.61953L0.920412 8.06707C0.817961 8.02904 0.729603 7.96057 0.667208 7.87086C0.604812 7.78114 0.571368 7.67448 0.571368 7.5652C0.571368 7.45592 0.604812 7.34926 0.667208 7.25954C0.729603 7.16983 0.817961 7.10135 0.920412 7.06333L5.18968 5.51087C5.26326 5.48375 5.33009 5.44099 5.38555 5.38554C5.441 5.33008 5.48376 5.26326 5.51088 5.18967L7.06334 0.920402C7.10136 0.817952 7.16983 0.729594 7.25955 0.667198C7.34927 0.604803 7.45593 0.571358 7.56521 0.571358C7.67449 0.571358 7.78115 0.604803 7.87087 0.667198C7.96058 0.729594 8.02905 0.817952 8.06708 0.920402L9.61954 5.18967C9.64666 5.26326 9.68942 5.33008 9.74487 5.38554C9.80033 5.44099 9.86715 5.48375 9.94074 5.51087L14.21 7.06333C14.3125 7.10135 14.4008 7.16983 14.4632 7.25954C14.5256 7.34926 14.559 7.45592 14.559 7.5652C14.559 7.67448 14.5256 7.78114 14.4632 7.87086C14.4008 7.96057 14.3125 8.02904 14.21 8.06707L9.94074 9.61953C9.86715 9.64665 9.80033 9.68941 9.74487 9.74486C9.68942 9.80032 9.64666 9.86714 9.61954 9.94073V9.94073Z" fill="#FFC27A"/>
</svg>
