<svg width="19" height="19" viewBox="0 0 19 19" fill="none" xmlns="http://www.w3.org/2000/svg">
<path d="M12.0031 12.4531L10.2031 17.3375C10.1498 17.481 10.0539 17.6048 9.92823 17.6922C9.80254 17.7797 9.6531 17.8265 9.5 17.8265C9.3469 17.8265 9.19746 17.7797 9.07177 17.6922C8.94608 17.6048 8.85015 17.481 8.79688 17.3375L6.99688 12.4531C6.95889 12.35 6.89898 12.2564 6.82129 12.1787C6.7436 12.101 6.64997 12.0411 6.54688 12.0031L1.6625 10.2031C1.51897 10.1498 1.39518 10.0539 1.30776 9.92823C1.22034 9.80254 1.17349 9.6531 1.17349 9.5C1.17349 9.3469 1.22034 9.19746 1.30776 9.07177C1.39518 8.94608 1.51897 8.85015 1.6625 8.79688L6.54688 6.99688C6.64997 6.95889 6.7436 6.89898 6.82129 6.82129C6.89898 6.7436 6.95889 6.64997 6.99688 6.54688L8.79688 1.6625C8.85015 1.51897 8.94608 1.39518 9.07177 1.30776C9.19746 1.22034 9.3469 1.17349 9.5 1.17349C9.6531 1.17349 9.80254 1.22034 9.92823 1.30776C10.0539 1.39518 10.1498 1.51897 10.2031 1.6625L12.0031 6.54688C12.0411 6.64997 12.101 6.7436 12.1787 6.82129C12.2564 6.89898 12.35 6.95889 12.4531 6.99688L17.3375 8.79688C17.481 8.85015 17.6048 8.94608 17.6922 9.07177C17.7797 9.19746 17.8265 9.3469 17.8265 9.5C17.8265 9.6531 17.7797 9.80254 17.6922 9.92823C17.6048 10.0539 17.481 10.1498 17.3375 10.2031L12.4531 12.0031C12.35 12.0411 12.2564 12.101 12.1787 12.1787C12.101 12.2564 12.0411 12.35 12.0031 12.4531V12.4531Z" stroke="black" stroke-width="1.5" stroke-linecap="round" stroke-linejoin="round"/>
</svg>
