<svg width="14" height="14" viewBox="0 0 14 14" fill="none" xmlns="http://www.w3.org/2000/svg">
<path d="M9.00332 9.30603L7.54092 13.3276C7.5051 13.4241 7.4406 13.5074 7.35609 13.5661C7.27158 13.6249 7.1711 13.6564 7.06816 13.6564C6.96522 13.6564 6.86475 13.6249 6.78024 13.5661C6.69573 13.5074 6.63123 13.4241 6.59541 13.3276L5.13301 9.30603C5.10747 9.23671 5.06719 9.17376 5.01495 9.12152C4.96271 9.06929 4.89976 9.02901 4.83044 9.00347L0.808849 7.54107C0.712342 7.50525 0.62911 7.44075 0.570334 7.35624C0.511558 7.27173 0.480054 7.17125 0.480054 7.06831C0.480054 6.96537 0.511558 6.86489 0.570334 6.78038C0.62911 6.69587 0.712342 6.63137 0.808849 6.59555L4.83044 5.13315C4.89976 5.10761 4.96271 5.06733 5.01495 5.0151C5.06719 4.96286 5.10747 4.89991 5.13301 4.83059L6.59541 0.808996C6.63123 0.712489 6.69573 0.629257 6.78024 0.570481C6.86475 0.511705 6.96522 0.480201 7.06816 0.480201C7.1711 0.480201 7.27158 0.511705 7.35609 0.570481C7.4406 0.629257 7.5051 0.712489 7.54092 0.808996L9.00332 4.83059C9.02886 4.89991 9.06914 4.96286 9.12138 5.0151C9.17361 5.06733 9.23656 5.10761 9.30588 5.13315L13.3275 6.59555C13.424 6.63137 13.5072 6.69587 13.566 6.78038C13.6248 6.86489 13.6563 6.96537 13.6563 7.06831C13.6563 7.17125 13.6248 7.27173 13.566 7.35624C13.5072 7.44075 13.424 7.50525 13.3275 7.54107L9.30588 9.00347C9.23656 9.02901 9.17361 9.06929 9.12138 9.12152C9.06914 9.17376 9.02886 9.23671 9.00332 9.30603V9.30603Z" fill="#FFC27A"/>
</svg>
